<svg version="1.1" id="Layer_1" xmlns="http://www.w3.org/2000/svg" xmlns:xlink="http://www.w3.org/1999/xlink" x="0px" y="0px"
	 width="100%" viewBox="0 0 350 355" enable-background="new 0 0 350 355" xml:space="preserve">
<path fill="#FDFDFD" opacity="1.000000" stroke="none" 
	d="
M351.000000,324.000000 
	C351.000000,334.659485 351.000000,345.318939 351.000000,355.983826 
	C234.419189,355.989197 117.838379,355.989197 1.128781,355.989197 
	C1.128781,237.666794 1.128781,119.333397 1.128781,1.000000 
	C2.335186,1.000000 3.667631,1.000000 5.500034,1.315519 
	C5.999977,2.051729 5.999960,2.472420 5.565545,2.987962 
	C4.680562,4.651175 3.836487,6.219305 3.835557,7.787935 
	C3.773528,112.427185 3.778433,217.066467 3.790291,321.705750 
	C3.790453,323.130463 3.952808,324.555176 4.030232,325.828125 
	C30.686075,325.828125 56.925770,325.828125 83.108620,325.828125 
	C83.108620,316.881042 83.108620,308.261566 83.108620,299.186218 
	C65.490623,299.186218 48.078091,299.186218 30.431055,299.186218 
	C30.431055,209.341141 30.431055,119.956299 30.431055,30.321646 
	C127.692780,30.321646 224.734299,30.321646 321.832520,30.321646 
	C321.832520,120.012733 321.832520,209.520325 321.832520,299.497711 
	C304.079224,299.497711 286.683899,299.497711 269.395935,299.497711 
	C269.395935,308.577484 269.395935,317.184357 269.395935,326.152191 
	C295.283966,326.152191 320.912048,326.173065 346.539551,326.061646 
	C347.397797,326.057922 348.250214,324.717407 349.421112,324.000000 
	C350.157928,324.000000 350.578949,324.000000 351.000000,324.000000 
M171.168762,288.227814 
	C174.530640,309.575348 180.606506,330.086914 190.235138,349.473541 
	C190.947769,350.908386 192.493668,352.855621 193.753799,352.934174 
	C199.649521,353.301636 205.580856,353.097351 211.499466,353.097351 
	C211.906677,352.529572 212.313904,351.961761 212.721115,351.393982 
	C211.429520,350.680176 209.877899,350.222778 208.884232,349.215179 
	C181.588181,321.536072 174.291504,287.768463 180.255310,250.649719 
	C183.066376,233.153580 185.178604,215.874496 182.746323,198.028366 
	C183.943115,199.081833 185.207504,200.269058 185.434555,201.629410 
	C186.571030,208.438629 188.393417,215.322815 188.183243,222.125290 
	C187.820206,233.876480 184.979218,245.615082 185.264847,257.308014 
	C185.745758,276.996582 198.170547,291.272278 216.481873,293.995117 
	C242.200119,297.819336 263.208282,288.268555 278.715668,268.080353 
	C294.039001,248.131744 292.341736,226.493561 281.312592,205.049911 
	C275.210297,193.185410 265.154175,186.706482 251.855423,187.241669 
	C243.308762,187.585617 234.857513,190.063538 226.340179,191.440796 
	C218.164078,192.762878 209.978973,194.682678 201.759262,194.903366 
	C193.010468,195.138260 186.693176,189.952087 182.182404,182.642639 
	C190.008911,174.986359 200.772614,172.054855 215.076111,173.439117 
	C226.675034,174.561630 238.259949,176.342331 249.879776,176.617157 
	C268.145966,177.049210 278.365051,168.840973 283.142914,151.174377 
	C284.268463,147.012436 285.010284,142.720764 285.597107,138.443283 
	C289.120270,112.763824 274.636353,74.406792 233.400192,69.391090 
	C208.326035,66.341232 185.902359,81.399239 181.425293,104.915680 
	C179.355103,115.789597 181.404205,126.363579 184.201065,136.969009 
	C185.917389,143.477203 186.769089,150.392563 186.775864,157.126343 
	C186.784012,165.227615 183.506989,172.279770 175.421158,177.949081 
	C172.822693,173.239456 169.370575,169.085953 168.216736,164.370117 
	C166.703186,158.183975 166.341003,151.521332 166.661255,145.122574 
	C167.293045,132.498520 169.327454,119.931129 169.671005,107.310066 
	C169.998566,95.276009 166.047089,84.491631 155.104523,77.824066 
	C133.336655,64.560410 97.830612,64.467712 78.271873,92.109283 
	C67.982460,106.650894 64.327454,122.948677 67.257072,140.504044 
	C70.495598,159.910477 82.862946,173.073898 101.278061,175.328354 
	C108.996063,176.273209 117.094498,174.582626 124.967682,173.649139 
	C132.203491,172.791245 139.339447,170.636703 146.573151,170.332687 
	C155.318970,169.965118 163.372574,172.867355 169.347885,179.741913 
	C170.239868,180.768112 170.713379,183.240738 170.100433,184.311447 
	C166.839096,190.008560 162.190521,194.923370 155.420715,195.073547 
	C148.758713,195.221313 141.968887,193.913818 135.393234,192.506363 
	C127.939857,190.911041 120.776451,187.806992 113.286980,186.562714 
	C89.249702,182.569275 70.415382,194.168976 64.624771,215.920639 
	C53.551270,257.516785 92.196907,301.494720 134.776123,295.751404 
	C153.994171,293.159149 163.964035,282.713531 164.918991,263.362610 
	C165.328232,255.069946 164.672256,246.725098 164.509491,238.403763 
	C164.324112,228.925507 163.753876,219.432220 164.108170,209.973831 
	C164.345123,203.647949 166.529373,197.704468 172.499527,193.450607 
	C178.258698,208.116058 178.601242,222.806808 174.503662,237.034256 
	C169.692795,253.738327 168.138382,270.296417 171.168762,288.227814 
z"/>
<path fill="#FDFDFD" opacity="1.000000" stroke="none" 
	d="
M351.000000,323.533020 
	C350.578949,324.000000 350.157928,324.000000 349.330872,323.539001 
	C348.924866,216.513336 348.924866,109.948700 348.924866,3.089062 
	C346.489044,3.089062 344.682220,3.089062 342.875397,3.089062 
	C232.577133,3.089062 122.278854,3.090093 11.980588,3.080904 
	C9.987035,3.080738 7.993492,2.958429 5.999944,2.893112 
	C5.999960,2.472420 5.999977,2.051729 5.999996,1.315519 
	C120.925224,1.000000 235.850449,1.000000 351.000000,1.000000 
	C351.000000,108.355240 351.000000,215.710648 351.000000,323.533020 
z"/>
<path fill="#37992A" opacity="1.000000" stroke="none" 
	d="
M171.121979,287.788116 
	C168.138382,270.296417 169.692795,253.738327 174.503662,237.034256 
	C178.601242,222.806808 178.258698,208.116058 172.499527,193.450607 
	C166.529373,197.704468 164.345123,203.647949 164.108170,209.973831 
	C163.753876,219.432220 164.324112,228.925507 164.509491,238.403763 
	C164.672256,246.725098 165.328232,255.069946 164.918991,263.362610 
	C163.964035,282.713531 153.994171,293.159149 134.776123,295.751404 
	C92.196907,301.494720 53.551270,257.516785 64.624771,215.920639 
	C70.415382,194.168976 89.249702,182.569275 113.286980,186.562714 
	C120.776451,187.806992 127.939857,190.911041 135.393234,192.506363 
	C141.968887,193.913818 148.758713,195.221313 155.420715,195.073547 
	C162.190521,194.923370 166.839096,190.008560 170.100433,184.311447 
	C170.713379,183.240738 170.239868,180.768112 169.347885,179.741913 
	C163.372574,172.867355 155.318970,169.965118 146.573151,170.332687 
	C139.339447,170.636703 132.203491,172.791245 124.967682,173.649139 
	C117.094498,174.582626 108.996063,176.273209 101.278061,175.328354 
	C82.862946,173.073898 70.495598,159.910477 67.257072,140.504044 
	C64.327454,122.948677 67.982460,106.650894 78.271873,92.109283 
	C97.830612,64.467712 133.336655,64.560410 155.104523,77.824066 
	C166.047089,84.491631 169.998566,95.276009 169.671005,107.310066 
	C169.327454,119.931129 167.293045,132.498520 166.661255,145.122574 
	C166.341003,151.521332 166.703186,158.183975 168.216736,164.370117 
	C169.370575,169.085953 172.822693,173.239456 175.421158,177.949081 
	C183.506989,172.279770 186.784012,165.227615 186.775864,157.126343 
	C186.769089,150.392563 185.917389,143.477203 184.201065,136.969009 
	C181.404205,126.363579 179.355103,115.789597 181.425293,104.915680 
	C185.902359,81.399239 208.326035,66.341232 233.400192,69.391090 
	C274.636353,74.406792 289.120270,112.763824 285.597107,138.443283 
	C285.010284,142.720764 284.268463,147.012436 283.142914,151.174377 
	C278.365051,168.840973 268.145966,177.049210 249.879776,176.617157 
	C238.259949,176.342331 226.675034,174.561630 215.076111,173.439117 
	C200.772614,172.054855 190.008911,174.986359 182.182404,182.642639 
	C186.693176,189.952087 193.010468,195.138260 201.759262,194.903366 
	C209.978973,194.682678 218.164078,192.762878 226.340179,191.440796 
	C234.857513,190.063538 243.308762,187.585617 251.855423,187.241669 
	C265.154175,186.706482 275.210297,193.185410 281.312592,205.049911 
	C292.341736,226.493561 294.039001,248.131744 278.715668,268.080353 
	C263.208282,288.268555 242.200119,297.819336 216.481873,293.995117 
	C198.170547,291.272278 185.745758,276.996582 185.264847,257.308014 
	C184.979218,245.615082 187.820206,233.876480 188.183243,222.125290 
	C188.393417,215.322815 186.571030,208.438629 185.434555,201.629410 
	C185.207504,200.269058 183.943115,199.081833 182.746323,198.028366 
	C185.178604,215.874496 183.066376,233.153580 180.255310,250.649719 
	C174.291504,287.768463 181.588181,321.536072 208.884232,349.215179 
	C209.877899,350.222778 211.429520,350.680176 212.721115,351.393982 
	C212.313904,351.961761 211.906677,352.529572 211.499466,353.097351 
	C205.580856,353.097351 199.649521,353.301636 193.753799,352.934174 
	C192.493668,352.855621 190.947769,350.908386 190.235138,349.473541 
	C180.606506,330.086914 174.530640,309.575348 171.121979,287.788116 
z"/>
<path fill="#020202" opacity="1.000000" stroke="none" 
	d="
M5.565545,2.987962 
	C7.993492,2.958429 9.987035,3.080738 11.980588,3.080904 
	C122.278854,3.090093 232.577133,3.089062 342.875397,3.089062 
	C344.682220,3.089062 346.489044,3.089062 348.924866,3.089062 
	C348.924866,109.948700 348.924866,216.513336 349.015106,323.539001 
	C348.250214,324.717407 347.397797,326.057922 346.539551,326.061646 
	C320.912048,326.173065 295.283966,326.152191 269.395935,326.152191 
	C269.395935,317.184357 269.395935,308.577484 269.395935,299.497711 
	C286.683899,299.497711 304.079224,299.497711 321.832520,299.497711 
	C321.832520,209.520325 321.832520,120.012733 321.832520,30.321646 
	C224.734299,30.321646 127.692780,30.321646 30.431055,30.321646 
	C30.431055,119.956299 30.431055,209.341141 30.431055,299.186218 
	C48.078091,299.186218 65.490623,299.186218 83.108620,299.186218 
	C83.108620,308.261566 83.108620,316.881042 83.108620,325.828125 
	C56.925770,325.828125 30.686075,325.828125 4.030232,325.828125 
	C3.952808,324.555176 3.790453,323.130463 3.790291,321.705750 
	C3.778433,217.066467 3.773528,112.427185 3.835557,7.787935 
	C3.836487,6.219305 4.680562,4.651175 5.565545,2.987962 
z"/>
</svg>