<svg version="1.1" id="Layer_1" xmlns="http://www.w3.org/2000/svg" xmlns:xlink="http://www.w3.org/1999/xlink" x="0px" y="0px"
	 width="100%" viewBox="0 0 350 331" enable-background="new 0 0 350 331" xml:space="preserve">
<path fill="#FDFCFC" opacity="1.000000" stroke="none" 
	d="
M1.000000,117.000000 
	C1.000000,78.000008 1.000000,39.500015 1.000000,1.000015 
	C117.666634,1.000010 234.333267,1.000010 350.999939,1.000005 
	C350.999939,111.333282 350.999939,221.666565 350.999969,331.999878 
	C234.333405,331.999939 117.666801,331.999939 1.000103,331.999969 
	C1.000000,260.500000 1.000000,189.000000 1.000000,117.000000 
M180.220062,85.931396 
	C164.719772,90.644585 151.687561,99.141609 140.722504,111.072571 
	C116.125229,137.836594 110.866737,177.936539 127.733810,211.632935 
	C143.850586,243.830399 178.735626,262.733826 214.835327,258.831268 
	C265.245087,253.381760 301.382294,202.999146 290.476257,153.356003 
	C284.488159,126.099060 268.830872,105.852135 245.250061,91.500504 
	C204.459641,66.674828 161.963150,63.935963 119.639641,85.725990 
	C65.263062,113.721458 39.436623,173.224533 54.140945,232.721130 
	C68.151871,289.412079 121.938477,336.846313 192.741669,328.619171 
	C247.146927,322.297424 291.675476,280.069153 301.769592,226.351562 
	C303.598419,216.619095 303.902618,206.600128 304.910675,196.713409 
	C304.413879,196.667908 303.917084,196.622406 303.420288,196.576889 
	C302.617157,202.135452 302.034271,207.736252 300.977234,213.246094 
	C288.627533,277.621277 220.285873,316.308990 159.517563,293.380524 
	C83.057716,264.531464 64.470230,163.829788 125.683052,109.568497 
	C141.222031,95.794182 159.225266,86.886536 180.210434,84.554237 
	C180.463699,84.953346 180.716965,85.352455 180.220062,85.931396 
M281.500000,31.039532 
	C295.616364,31.039532 309.732758,31.039532 323.863281,31.039532 
	C323.863281,121.724724 323.863281,211.921326 323.863281,302.569214 
	C310.423584,302.569214 297.341705,302.569214 284.366302,302.569214 
	C284.366302,311.630920 284.366302,320.237915 284.366302,328.916443 
	C306.020020,328.916443 327.407074,328.916443 348.737793,328.916443 
	C348.737793,220.396332 348.737793,112.172745 348.737793,4.164191 
	C233.547592,4.164191 118.664406,4.164191 3.922131,4.164191 
	C3.922131,112.632637 3.922131,220.724228 3.922131,328.953003 
	C26.231777,328.953003 48.300941,328.953003 70.416748,328.953003 
	C70.416748,319.980469 70.416748,311.272278 70.416748,302.102417 
	C56.980022,302.102417 43.895088,302.102417 30.865028,302.102417 
	C30.865028,211.561340 30.865028,121.490387 30.865028,31.039532 
	C114.256020,31.039532 197.378006,31.039532 281.500000,31.039532 
z"/>
<path fill="#E00C20" opacity="1.000000" stroke="none" 
	d="
M180.013443,84.124115 
	C159.225266,86.886536 141.222031,95.794182 125.683052,109.568497 
	C64.470230,163.829788 83.057716,264.531464 159.517563,293.380524 
	C220.285873,316.308990 288.627533,277.621277 300.977234,213.246094 
	C302.034271,207.736252 302.617157,202.135452 303.420288,196.576889 
	C303.917084,196.622406 304.413879,196.667908 304.910675,196.713409 
	C303.902618,206.600128 303.598419,216.619095 301.769592,226.351562 
	C291.675476,280.069153 247.146927,322.297424 192.741669,328.619171 
	C121.938477,336.846313 68.151871,289.412079 54.140945,232.721130 
	C39.436623,173.224533 65.263062,113.721458 119.639641,85.725990 
	C161.963150,63.935963 204.459641,66.674828 245.250061,91.500504 
	C268.830872,105.852135 284.488159,126.099060 290.476257,153.356003 
	C301.382294,202.999146 265.245087,253.381760 214.835327,258.831268 
	C178.735626,262.733826 143.850586,243.830399 127.733810,211.632935 
	C110.866737,177.936539 116.125229,137.836594 140.722504,111.072571 
	C151.687561,99.141609 164.719772,90.644585 180.939331,85.943802 
	C182.046219,86.176476 182.433823,86.396736 182.821442,86.617004 
	C182.580948,86.838272 182.361069,87.088486 182.096954,87.276581 
	C175.099426,92.260384 167.246796,96.387161 161.256653,102.376892 
	C143.785980,119.846359 140.270935,148.929733 151.929749,171.545029 
	C163.701996,194.380356 188.522064,207.410904 213.319290,203.774551 
	C242.290009,199.526215 264.650787,174.311890 264.865601,145.650269 
	C265.108398,113.253342 245.421722,88.445549 214.555450,84.113403 
	C203.264374,82.528664 191.540100,84.030396 180.013443,84.124115 
z"/>
<path fill="#030303" opacity="1.000000" stroke="none" 
	d="
M281.000000,31.039532 
	C197.378006,31.039532 114.256020,31.039532 30.865028,31.039532 
	C30.865028,121.490387 30.865028,211.561340 30.865028,302.102417 
	C43.895088,302.102417 56.980022,302.102417 70.416748,302.102417 
	C70.416748,311.272278 70.416748,319.980469 70.416748,328.953003 
	C48.300941,328.953003 26.231777,328.953003 3.922131,328.953003 
	C3.922131,220.724228 3.922131,112.632637 3.922131,4.164191 
	C118.664406,4.164191 233.547592,4.164191 348.737793,4.164191 
	C348.737793,112.172745 348.737793,220.396332 348.737793,328.916443 
	C327.407074,328.916443 306.020020,328.916443 284.366302,328.916443 
	C284.366302,320.237915 284.366302,311.630920 284.366302,302.569214 
	C297.341705,302.569214 310.423584,302.569214 323.863281,302.569214 
	C323.863281,211.921326 323.863281,121.724724 323.863281,31.039532 
	C309.732758,31.039532 295.616364,31.039532 281.000000,31.039532 
z"/>
<path fill="#FEFDFD" opacity="1.000000" stroke="none" 
	d="
M180.111938,84.339172 
	C191.540100,84.030396 203.264374,82.528664 214.555450,84.113403 
	C245.421722,88.445549 265.108398,113.253342 264.865601,145.650269 
	C264.650787,174.311890 242.290009,199.526215 213.319290,203.774551 
	C188.522064,207.410904 163.701996,194.380356 151.929749,171.545029 
	C140.270935,148.929733 143.785980,119.846359 161.256653,102.376892 
	C167.246796,96.387161 175.099426,92.260384 182.096954,87.276581 
	C182.361069,87.088486 182.580948,86.838272 182.821442,86.617004 
	C182.433823,86.396736 182.046219,86.176476 181.314423,85.853889 
	C180.716965,85.352455 180.463699,84.953346 180.111938,84.339172 
M161.334305,138.164734 
	C165.187088,138.618774 169.039886,139.072800 173.153900,139.557617 
	C173.153900,140.892456 173.153900,142.275497 173.153900,144.132858 
	C169.153687,144.132858 165.396591,144.132858 161.585724,144.132858 
	C161.585724,147.323959 161.585724,150.028809 161.585724,153.072296 
	C164.294922,153.072296 166.641876,153.289810 168.933258,153.025589 
	C173.280563,152.524307 175.367081,154.187393 177.381210,158.319977 
	C187.050049,178.158539 211.245438,185.022369 229.610672,173.500565 
	C230.999741,172.629105 232.682419,171.028625 232.837265,169.614670 
	C233.275589,165.612305 232.990707,161.530731 232.990707,156.850952 
	C216.324188,173.409271 192.359680,171.182724 186.965881,152.750916 
	C197.335892,152.750916 207.553146,152.750916 217.660233,152.750916 
	C217.660233,149.587692 217.660233,146.995407 217.660233,144.014313 
	C206.259598,144.014313 195.159378,144.014313 183.923004,144.014313 
	C183.923004,142.218033 183.923004,140.837280 183.923004,139.010437 
	C195.305389,139.010437 206.394196,139.010437 217.582581,139.010437 
	C217.582581,135.864029 217.582581,133.178406 217.582581,130.044586 
	C207.135590,130.044586 197.066177,130.044586 186.246414,130.044586 
	C189.962585,122.434303 195.234436,117.776344 202.579636,115.618851 
	C214.765518,112.039528 224.546600,116.286247 232.993378,126.330948 
	C232.993378,122.347359 232.709259,119.349998 233.062958,116.429909 
	C233.539703,112.493874 231.826401,110.442245 228.509445,108.620972 
	C220.388351,104.161850 211.840286,102.934402 202.914307,104.736137 
	C188.728775,107.599533 180.041458,116.835297 174.713730,130.343719 
	C170.396347,130.343719 165.980225,130.343719 161.214767,130.343719 
	C161.214767,132.989761 161.214767,135.125977 161.334305,138.164734 
z"/>
<path fill="#0F4391" opacity="1.000000" stroke="none" 
	d="
M161.274536,137.713470 
	C161.214767,135.125977 161.214767,132.989761 161.214767,130.343719 
	C165.980225,130.343719 170.396347,130.343719 174.713730,130.343719 
	C180.041458,116.835297 188.728775,107.599533 202.914307,104.736137 
	C211.840286,102.934402 220.388351,104.161850 228.509445,108.620972 
	C231.826401,110.442245 233.539703,112.493874 233.062958,116.429909 
	C232.709259,119.349998 232.993378,122.347359 232.993378,126.330948 
	C224.546600,116.286247 214.765518,112.039528 202.579636,115.618851 
	C195.234436,117.776344 189.962585,122.434303 186.246414,130.044586 
	C197.066177,130.044586 207.135590,130.044586 217.582581,130.044586 
	C217.582581,133.178406 217.582581,135.864029 217.582581,139.010437 
	C206.394196,139.010437 195.305389,139.010437 183.923004,139.010437 
	C183.923004,140.837280 183.923004,142.218033 183.923004,144.014313 
	C195.159378,144.014313 206.259598,144.014313 217.660233,144.014313 
	C217.660233,146.995407 217.660233,149.587692 217.660233,152.750916 
	C207.553146,152.750916 197.335892,152.750916 186.965881,152.750916 
	C192.359680,171.182724 216.324188,173.409271 232.990707,156.850952 
	C232.990707,161.530731 233.275589,165.612305 232.837265,169.614670 
	C232.682419,171.028625 230.999741,172.629105 229.610672,173.500565 
	C211.245438,185.022369 187.050049,178.158539 177.381210,158.319977 
	C175.367081,154.187393 173.280563,152.524307 168.933258,153.025589 
	C166.641876,153.289810 164.294922,153.072296 161.585724,153.072296 
	C161.585724,150.028809 161.585724,147.323959 161.585724,144.132858 
	C165.396591,144.132858 169.153687,144.132858 173.153900,144.132858 
	C173.153900,142.275497 173.153900,140.892456 173.153900,139.557617 
	C169.039886,139.072800 165.187088,138.618774 161.274536,137.713470 
z"/>
</svg>