<svg version="1.1" id="Layer_1" xmlns="http://www.w3.org/2000/svg" xmlns:xlink="http://www.w3.org/1999/xlink" x="0px" y="0px"
	 width="100%" viewBox="0 0 350 333" enable-background="new 0 0 350 333" xml:space="preserve">
<path fill="#FBFBFB" opacity="1.000000" stroke="none" 
	d="
M1.000000,117.000000 
	C1.000000,78.000008 1.000000,39.500015 1.000000,1.000015 
	C117.666634,1.000010 234.333267,1.000010 350.999939,1.000005 
	C350.999939,111.999947 350.999939,222.999893 350.999969,333.999878 
	C234.333405,333.999939 117.666801,333.999939 1.000103,333.999969 
	C1.000000,261.833344 1.000000,189.666672 1.000000,117.000000 
M70.850456,303.671631 
	C70.850456,301.908081 70.850456,300.144562 70.850456,297.963623 
	C57.275837,297.963623 44.359886,297.963623 31.428291,297.963623 
	C31.428291,208.657410 31.428291,119.777672 31.428291,30.861021 
	C128.309845,30.861021 224.882248,30.861021 321.374512,30.861021 
	C321.374512,120.092110 321.374512,208.989716 321.374512,298.326538 
	C308.106171,298.326538 295.183075,298.326538 282.244751,298.326538 
	C282.244751,307.368042 282.244751,315.967316 282.244751,324.761902 
	C304.206787,324.761902 325.942505,324.761902 347.757446,324.761902 
	C347.757446,217.662109 347.757446,110.786308 347.757446,4.032072 
	C233.339752,4.032072 119.252007,4.032072 5.018847,4.032072 
	C5.018847,111.042786 5.018847,217.790588 5.018847,324.744080 
	C26.944675,324.744080 48.675583,324.744080 70.850456,324.744080 
	C70.850456,317.884613 70.850456,311.258911 70.850456,303.671631 
M307.338135,223.778122 
	C311.516510,202.819397 310.544128,182.053574 304.960938,161.470856 
	C287.064911,95.496094 219.595657,52.576805 154.106400,65.495964 
	C77.107803,80.685600 29.794548,155.583130 49.057087,231.790497 
	C64.380486,292.413666 119.689507,333.882477 182.751801,332.030182 
	C242.502228,330.275177 295.942017,284.135529 307.338135,223.778122 
z"/>
<path fill="#020202" opacity="1.000000" stroke="none" 
	d="
M70.850456,304.152405 
	C70.850456,311.258911 70.850456,317.884613 70.850456,324.744080 
	C48.675583,324.744080 26.944675,324.744080 5.018847,324.744080 
	C5.018847,217.790588 5.018847,111.042786 5.018847,4.032072 
	C119.252007,4.032072 233.339752,4.032072 347.757446,4.032072 
	C347.757446,110.786308 347.757446,217.662109 347.757446,324.761902 
	C325.942505,324.761902 304.206787,324.761902 282.244751,324.761902 
	C282.244751,315.967316 282.244751,307.368042 282.244751,298.326538 
	C295.183075,298.326538 308.106171,298.326538 321.374512,298.326538 
	C321.374512,208.989716 321.374512,120.092110 321.374512,30.861021 
	C224.882248,30.861021 128.309845,30.861021 31.428291,30.861021 
	C31.428291,119.777672 31.428291,208.657410 31.428291,297.963623 
	C44.359886,297.963623 57.275837,297.963623 70.850456,297.963623 
	C70.850456,300.144562 70.850456,301.908081 70.850456,304.152405 
z"/>
<path fill="#030202" opacity="1.000000" stroke="none" 
	d="
M307.250916,224.195831 
	C295.942017,284.135529 242.502228,330.275177 182.751801,332.030182 
	C119.689507,333.882477 64.380486,292.413666 49.057087,231.790497 
	C29.794548,155.583130 77.107803,80.685600 154.106400,65.495964 
	C219.595657,52.576805 287.064911,95.496094 304.960938,161.470856 
	C310.544128,182.053574 311.516510,202.819397 307.250916,224.195831 
M83.018387,260.484131 
	C83.992554,261.782196 84.966721,263.080261 86.095078,265.011414 
	C90.331367,269.801331 94.567657,274.591278 99.115761,279.924774 
	C100.726753,281.371033 102.337746,282.817322 104.257568,284.838776 
	C111.980156,290.002625 119.287712,295.973724 127.495560,300.193726 
	C167.860123,320.946686 219.317749,314.088318 251.382034,283.914917 
	C252.887497,282.399963 254.392944,280.885010 256.528076,279.040192 
	C260.586884,274.159241 264.645721,269.278320 269.103607,263.996368 
	C270.057770,262.485596 271.011932,260.974792 272.538513,259.009064 
	C275.075592,253.839569 277.612701,248.670090 280.758240,243.081879 
	C281.270782,241.689804 281.783325,240.297729 282.780212,238.426300 
	C284.232208,233.202621 285.684204,227.978958 287.487000,222.145325 
	C287.683716,220.743835 287.880463,219.342346 288.482117,217.256577 
	C288.929413,212.459106 289.376678,207.661621 289.986115,202.068481 
	C289.959137,200.721558 289.932159,199.374634 290.068726,197.114197 
	C289.660736,192.055695 289.252777,186.997177 288.923035,181.226044 
	C288.605042,179.843994 288.287079,178.461929 288.042938,176.254974 
	C286.651642,171.168747 285.260345,166.082504 283.898865,160.339523 
	C283.291595,158.956970 282.684326,157.574417 282.028076,155.424271 
	C279.665192,150.634598 277.302307,145.844925 274.853973,140.392120 
	C273.983246,139.103668 273.112488,137.815231 272.086487,135.878815 
	C267.941742,130.543747 263.796967,125.208687 259.179657,119.245407 
	C257.873291,118.021385 256.566925,116.797363 254.989120,114.983139 
	C248.079910,109.743607 241.170715,104.504074 233.610336,98.867676 
	C230.955048,97.485413 228.299774,96.103149 225.274185,94.222359 
	C222.368774,92.991257 219.514191,91.619049 216.550003,90.551064 
	C189.532578,80.816826 162.631226,80.549591 135.174561,91.869171 
	C129.624146,94.680344 124.073723,97.491524 117.990982,100.585449 
	C111.995590,105.373192 106.000206,110.160934 99.415474,115.264786 
	C97.493027,117.418900 95.570587,119.573021 93.052849,122.026001 
	C90.082062,125.963600 87.111267,129.901199 83.633339,134.325882 
	C81.790146,137.546097 79.946953,140.766296 77.620071,144.507309 
	C76.059189,148.084122 74.498314,151.660919 72.535881,155.770035 
	C71.743622,158.100937 70.951363,160.431854 69.770172,163.457870 
	C68.709862,167.989914 67.649559,172.521973 66.274796,177.714600 
	C66.103813,179.417175 65.932831,181.119736 65.367668,183.566620 
	C65.186684,188.381851 65.005707,193.197067 64.582626,198.800797 
	C64.706619,200.163177 64.830620,201.525574 64.802719,203.799057 
	C65.351921,208.520859 65.901123,213.242676 66.391182,218.697662 
	C66.735443,220.072937 67.079712,221.448227 67.503983,223.684952 
	C69.073860,228.763840 70.643738,233.842728 72.291519,239.620926 
	C72.894836,240.882462 73.498161,242.143982 74.143166,244.075790 
	C77.026611,249.320297 79.910057,254.564789 83.018387,260.484131 
z"/>
<path fill="#E10126" opacity="1.000000" stroke="none" 
	d="
M250.784088,284.256042 
	C219.317749,314.088318 167.860123,320.946686 127.495560,300.193726 
	C119.287712,295.973724 111.980156,290.002625 104.571548,284.496399 
	C114.281563,284.078552 123.677605,284.003143 133.433762,283.972168 
	C142.814453,288.705353 152.449295,291.244537 162.500870,289.682129 
	C169.596283,288.579254 176.447006,285.902313 183.849152,283.964386 
	C206.455582,284.085785 228.619843,284.170929 250.784088,284.256042 
z"/>
<path fill="#E20327" opacity="1.000000" stroke="none" 
	d="
M289.823975,202.864151 
	C289.376678,207.661621 288.929413,212.459106 287.806519,217.562943 
	C268.087463,217.935760 249.043991,218.002213 229.537857,217.987976 
	C209.909180,218.485626 190.879868,216.412445 171.784698,215.354935 
	C136.660355,213.409714 101.547745,216.329865 66.450333,217.964478 
	C65.901123,213.242676 65.351921,208.520859 65.349434,203.341644 
	C71.037987,203.124588 76.228394,202.998184 81.312881,203.671585 
	C99.118263,206.029724 116.858505,208.535339 134.938736,207.918076 
	C150.066422,207.401611 165.225830,207.828781 180.371063,207.792236 
	C182.355423,207.787460 184.368362,207.676163 186.318619,207.333145 
	C205.532196,203.953842 224.833954,202.180954 244.390930,202.771088 
	C259.522430,203.227676 274.678711,202.863449 289.823975,202.864151 
z"/>
<path fill="#E20528" opacity="1.000000" stroke="none" 
	d="
M64.824722,198.012299 
	C65.005707,193.197067 65.186684,188.381851 65.993561,183.262421 
	C75.636986,184.343445 84.639458,186.796173 93.674728,186.923584 
	C127.427589,187.399536 161.191208,187.130066 194.950714,187.083496 
	C197.760971,187.079620 200.597946,186.825745 203.376160,186.391510 
	C221.283066,183.592621 239.183090,181.116837 257.417725,181.900116 
	C267.874695,182.349304 278.367920,181.953873 288.844818,181.938675 
	C289.252777,186.997177 289.660736,192.055695 289.525085,197.562836 
	C270.158325,198.009125 251.332550,197.814301 232.513138,198.076965 
	C221.304947,198.233368 210.256561,197.634125 199.344635,194.919861 
	C196.959595,194.326599 194.410645,194.192169 191.936554,194.187698 
	C164.618149,194.138519 137.299606,194.143356 109.981163,194.180893 
	C107.665977,194.184067 105.350250,194.516052 103.036476,194.715088 
	C90.298927,195.810760 77.561920,196.912582 64.824722,198.012299 
z"/>
<path fill="#FEF8F9" opacity="1.000000" stroke="none" 
	d="
M70.159103,162.762756 
	C70.951363,160.431854 71.743622,158.100937 73.177475,155.485168 
	C89.245842,151.929138 104.880043,152.039810 120.539200,152.136581 
	C144.190750,152.282745 167.844681,152.291245 191.496017,152.127731 
	C204.170105,152.040115 216.778381,152.206238 229.224899,154.994659 
	C232.136414,155.646927 235.141312,156.216980 238.107025,156.235977 
	C252.763000,156.329849 267.420227,156.226013 282.077026,156.191879 
	C282.684326,157.574417 283.291595,158.956970 283.425354,160.698792 
	C259.528564,160.694504 236.124054,160.570206 212.767273,166.479980 
	C172.233292,166.422012 132.129959,166.420685 91.628593,166.269684 
	C84.206734,165.000916 77.182922,163.881836 70.159103,162.762756 
z"/>
<path fill="#FEF9FA" opacity="1.000000" stroke="none" 
	d="
M288.883911,181.582367 
	C278.367920,181.953873 267.874695,182.349304 257.417725,181.900116 
	C239.183090,181.116837 221.283066,183.592621 203.376160,186.391510 
	C200.597946,186.825745 197.760971,187.079620 194.950714,187.083496 
	C161.191208,187.130066 127.427589,187.399536 93.674728,186.923584 
	C84.639458,186.796173 75.636986,184.343445 66.190659,182.890274 
	C65.932831,181.119736 66.103813,179.417175 66.903336,177.407181 
	C69.509941,176.879028 71.485062,176.626511 73.466553,176.442764 
	C85.515678,175.325470 97.552780,173.489075 109.619125,173.267532 
	C136.071320,172.781876 162.539749,173.263657 188.999146,173.050430 
	C200.847458,172.954956 212.579742,173.362442 224.169006,176.048828 
	C226.742477,176.645355 229.420517,177.079834 232.052277,177.089661 
	C250.690933,177.159286 269.330078,177.098846 287.969086,177.079880 
	C288.287079,178.461929 288.605042,179.843994 288.883911,181.582367 
z"/>
<path fill="#E20729" opacity="1.000000" stroke="none" 
	d="
M72.213615,238.921616 
	C70.643738,233.842728 69.073860,228.763840 67.981560,223.223755 
	C70.286560,222.742935 72.117500,222.639771 73.940872,222.716431 
	C94.354469,223.574646 114.771912,225.275986 135.178482,225.150543 
	C166.881683,224.955658 198.577301,223.522583 230.552582,222.819901 
	C232.549515,225.414505 234.269974,227.803558 235.990433,230.192612 
	C236.386429,230.631012 236.782440,231.069427 237.178436,231.507843 
	C234.128296,233.996262 231.078171,236.484695 227.563583,238.890564 
	C205.337372,238.181763 183.574387,237.026886 161.814163,237.076309 
	C139.556381,237.126862 117.301277,238.358078 94.876572,238.953705 
	C94.708145,238.834946 94.392166,238.570312 94.529442,238.322235 
	C96.290138,235.622833 98.083679,233.259796 99.430321,230.664841 
	C99.819756,229.914413 99.217491,228.201767 98.506813,227.502487 
	C98.105644,227.107742 95.791664,227.652405 95.642624,228.158035 
	C93.696014,234.762695 88.994370,237.428558 82.543327,237.887695 
	C82.190331,237.912796 81.882950,238.578812 81.137131,238.883331 
	C77.884491,238.853989 75.049057,238.887802 72.213615,238.921616 
z"/>
<path fill="#FEF7F8" opacity="1.000000" stroke="none" 
	d="
M272.241760,136.526779 
	C273.112488,137.815231 273.983246,139.103668 274.435394,140.782227 
	C253.772278,140.270660 233.794617,142.213181 213.597839,146.709641 
	C197.665741,146.610184 182.200592,146.569687 166.735535,146.593826 
	C142.128647,146.632263 117.521851,146.713806 92.581062,146.573883 
	C87.532661,145.575912 82.818207,144.781219 78.103760,143.986511 
	C79.946953,140.766296 81.790146,137.546097 84.245148,134.099304 
	C87.125038,133.411179 89.393127,132.949600 92.115578,132.516052 
	C133.492188,132.512054 174.414429,132.480042 215.629700,132.641266 
	C234.487991,137.234131 253.359634,136.960449 272.241760,136.526779 
z"/>
<path fill="#FEF4F6" opacity="1.000000" stroke="none" 
	d="
M64.703674,198.406555 
	C77.561920,196.912582 90.298927,195.810760 103.036476,194.715088 
	C105.350250,194.516052 107.665977,194.184067 109.981163,194.180893 
	C137.299606,194.143356 164.618149,194.138519 191.936554,194.187698 
	C194.410645,194.192169 196.959595,194.326599 199.344635,194.919861 
	C210.256561,197.634125 221.304947,198.233368 232.513138,198.076965 
	C251.332550,197.814301 270.158325,198.009125 289.443298,198.019592 
	C289.932159,199.374634 289.959137,200.721558 289.905029,202.466309 
	C274.678711,202.863449 259.522430,203.227676 244.390930,202.771088 
	C224.833954,202.180954 205.532196,203.953842 186.318619,207.333145 
	C184.368362,207.676163 182.355423,207.787460 180.371063,207.792236 
	C165.225830,207.828781 150.066422,207.401611 134.938736,207.918076 
	C116.858505,208.535339 99.118263,206.029724 81.312881,203.671585 
	C76.228394,202.998184 71.037987,203.124588 65.425385,202.886108 
	C64.830620,201.525574 64.706619,200.163177 64.703674,198.406555 
z"/>
<path fill="#E3082B" opacity="1.000000" stroke="none" 
	d="
M288.006012,176.667419 
	C269.330078,177.098846 250.690933,177.159286 232.052277,177.089661 
	C229.420517,177.079834 226.742477,176.645355 224.169006,176.048828 
	C212.579742,173.362442 200.847458,172.954956 188.999146,173.050430 
	C162.539749,173.263657 136.071320,172.781876 109.619125,173.267532 
	C97.552780,173.489075 85.515678,175.325470 73.466553,176.442764 
	C71.485062,176.626511 69.509941,176.879028 67.060562,177.076889 
	C67.649559,172.521973 68.709862,167.989914 69.964638,163.110321 
	C77.182922,163.881836 84.206734,165.000916 91.768150,166.625305 
	C93.535904,167.422134 94.765755,167.966949 95.996269,167.968414 
	C133.585266,168.013412 171.174377,168.021744 208.763260,167.942932 
	C210.242447,167.939835 211.719727,167.026047 213.197906,166.536591 
	C236.124054,160.570206 259.528564,160.694504 283.410461,161.027161 
	C285.260345,166.082504 286.651642,171.168747 288.006012,176.667419 
z"/>
<path fill="#E20629" opacity="1.000000" stroke="none" 
	d="
M100.004822,114.948677 
	C106.000206,110.160934 111.995590,105.373192 118.565361,100.702560 
	C123.224472,101.533173 127.282784,102.587585 131.398102,102.906502 
	C165.662735,105.561836 199.608093,98.241844 233.837769,99.515465 
	C233.975708,99.520599 234.120117,99.352013 234.261505,99.264542 
	C241.170715,104.504074 248.079910,109.743607 254.644409,115.379028 
	C238.842834,115.401657 223.375793,115.259338 207.932419,114.579453 
	C196.326874,114.068520 184.751434,112.123016 173.163116,112.127708 
	C148.757553,112.137589 124.237434,110.183479 100.004822,114.948677 
z"/>
<path fill="#FEFCFC" opacity="1.000000" stroke="none" 
	d="
M99.710144,115.106735 
	C124.237434,110.183479 148.757553,112.137589 173.163116,112.127708 
	C184.751434,112.123016 196.326874,114.068520 207.932419,114.579453 
	C223.375793,115.259338 238.842834,115.401657 254.780121,115.674133 
	C256.566925,116.797363 257.873291,118.021385 258.989746,119.715218 
	C256.489044,120.250999 254.171478,120.464828 251.868484,120.359543 
	C233.428192,119.516525 215.265335,121.522095 196.837341,125.488678 
	C167.606110,125.434479 138.827179,125.428429 109.676460,125.253372 
	C104.085838,123.965294 98.866989,122.846214 93.648140,121.727135 
	C95.570587,119.573021 97.493027,117.418900 99.710144,115.106735 
z"/>
<path fill="#E20427" opacity="1.000000" stroke="none" 
	d="
M77.861916,144.246918 
	C82.818207,144.781219 87.532661,145.575912 92.855560,146.908264 
	C94.424011,147.630371 95.383904,147.975479 96.344040,147.976181 
	C134.228546,148.003967 172.113098,148.012939 209.997528,147.950333 
	C211.353928,147.948090 212.709091,147.198746 214.064835,146.797607 
	C233.794617,142.213181 253.772278,140.270660 274.478119,141.113800 
	C277.302307,145.844925 279.665192,150.634598 282.052551,155.808075 
	C267.420227,156.226013 252.763000,156.329849 238.107025,156.235977 
	C235.141312,156.216980 232.136414,155.646927 229.224899,154.994659 
	C216.778381,152.206238 204.170105,152.040115 191.496017,152.127731 
	C167.844681,152.291245 144.190750,152.282745 120.539200,152.136581 
	C104.880043,152.039810 89.245842,151.929138 73.378250,155.219009 
	C74.498314,151.660919 76.059189,148.084122 77.861916,144.246918 
z"/>
<path fill="#E41536" opacity="1.000000" stroke="none" 
	d="
M93.350494,121.876572 
	C98.866989,122.846214 104.085838,123.965294 109.813316,125.609879 
	C111.213898,126.431473 112.105415,126.984756 112.997871,126.986290 
	C139.778458,127.032356 166.559189,127.045006 193.339584,126.960846 
	C194.657745,126.956711 195.973007,126.032570 197.289627,125.536819 
	C215.265335,121.522095 233.428192,119.516525 251.868484,120.359543 
	C254.171478,120.464828 256.489044,120.250999 259.226044,120.029327 
	C263.796967,125.208687 267.941742,130.543747 272.164124,136.202789 
	C253.359634,136.960449 234.487991,137.234131 215.332184,132.280151 
	C213.469528,131.475464 212.197647,131.007675 210.925293,131.006378 
	C172.653763,130.967575 134.382187,130.957840 96.110794,131.038712 
	C94.626579,131.041840 93.144356,131.983627 91.661209,132.488037 
	C89.393127,132.949600 87.125038,133.411179 84.498718,133.855774 
	C87.111267,129.901199 90.082062,125.963600 93.350494,121.876572 
z"/>
<path fill="#FEF4F6" opacity="1.000000" stroke="none" 
	d="
M230.276123,222.614365 
	C198.577301,223.522583 166.881683,224.955658 135.178482,225.150543 
	C114.771912,225.275986 94.354469,223.574646 73.940872,222.716431 
	C72.117500,222.639771 70.286560,222.742935 67.941559,222.793030 
	C67.079712,221.448227 66.735443,220.072937 66.420761,218.331070 
	C101.547745,216.329865 136.660355,213.409714 171.784698,215.354935 
	C190.879868,216.412445 209.909180,218.485626 229.592102,218.337463 
	C230.158157,218.998245 230.207321,219.228836 230.305588,219.774109 
	C230.328506,220.930634 230.302322,221.772507 230.276123,222.614365 
z"/>
<path fill="#E10528" opacity="1.000000" stroke="none" 
	d="
M268.704529,264.397339 
	C264.645721,269.278320 260.586884,274.159241 255.752991,279.136780 
	C234.097473,279.141876 213.217041,279.050385 192.582275,278.669434 
	C198.969284,273.602203 205.110611,268.824402 211.702209,264.100708 
	C231.003159,264.235687 249.853851,264.316528 268.704529,264.397339 
z"/>
<path fill="#FDF7F8" opacity="1.000000" stroke="none" 
	d="
M233.935913,99.066116 
	C234.120117,99.352013 233.975708,99.520599 233.837769,99.515465 
	C199.608093,98.241844 165.662735,105.561836 131.398102,102.906502 
	C127.282784,102.587585 123.224472,101.533173 118.831528,100.561180 
	C124.073723,97.491524 129.624146,94.680344 136.004379,91.877045 
	C144.299759,91.931908 151.765640,91.950371 159.230789,92.033409 
	C167.684738,92.127441 176.351669,91.134674 184.543655,92.663315 
	C198.249817,95.220901 211.905563,94.918587 225.644501,94.720886 
	C228.299774,96.103149 230.955048,97.485413 233.935913,99.066116 
z"/>
<path fill="#E20629" opacity="1.000000" stroke="none" 
	d="
M280.149780,243.500595 
	C277.612701,248.670090 275.075592,253.839569 271.784637,259.191711 
	C252.844772,259.267792 234.658783,259.161255 216.676788,258.747192 
	C221.535477,253.340454 226.190155,248.241211 231.315414,243.237488 
	C247.907242,243.388870 264.028503,243.444733 280.149780,243.500595 
z"/>
<path fill="#E10628" opacity="1.000000" stroke="none" 
	d="
M287.136169,222.755295 
	C285.684204,227.978958 284.232208,233.202621 282.054749,238.600281 
	C265.737244,238.662750 250.145248,238.551224 234.705627,238.132690 
	C237.415451,232.655670 241.227936,230.558014 246.871887,232.897964 
	C247.167633,233.020569 247.567215,233.114258 247.846970,233.016602 
	C249.239288,232.530548 250.607651,231.975891 251.984451,231.445374 
	C250.798492,230.364014 249.780060,228.802689 248.386459,228.316269 
	C246.405365,227.624832 243.927750,228.207672 242.066757,227.359070 
	C239.868393,226.356613 238.101074,224.408905 236.604248,222.822586 
	C253.753128,222.767899 270.444672,222.761597 287.136169,222.755295 
z"/>
<path fill="#DE0427" opacity="1.000000" stroke="none" 
	d="
M225.459351,94.471619 
	C211.905563,94.918587 198.249817,95.220901 184.543655,92.663315 
	C176.351669,91.134674 167.684738,92.127441 159.230789,92.033409 
	C151.765640,91.950371 144.299759,91.931908 136.366821,91.786102 
	C162.631226,80.549591 189.532578,80.816826 216.550003,90.551064 
	C219.514191,91.619049 222.368774,92.991257 225.459351,94.471619 
z"/>
<path fill="#E00527" opacity="1.000000" stroke="none" 
	d="
M98.803940,279.381226 
	C94.567657,274.591278 90.331367,269.801331 86.487213,264.642456 
	C94.471054,264.210266 102.062752,264.147064 109.899002,264.254944 
	C115.193642,269.267120 120.243721,274.108246 124.816185,279.053009 
	C115.827026,279.231506 107.315483,279.306366 98.803940,279.381226 
z"/>
<path fill="#E00629" opacity="1.000000" stroke="none" 
	d="
M82.793503,259.809296 
	C79.910057,254.564789 77.026611,249.320297 74.580978,243.724625 
	C81.438889,243.268967 87.858978,243.164474 94.627533,243.139099 
	C95.348442,243.097626 95.720894,242.977036 96.064789,242.812531 
	C96.036240,242.768600 96.076859,242.672028 95.798935,242.987625 
	C98.872459,248.557327 102.223900,253.811447 105.082176,259.183777 
	C97.323845,259.471100 90.058670,259.640198 82.793503,259.809296 
z"/>
<path fill="#FCEDEF" opacity="1.000000" stroke="none" 
	d="
M192.336594,278.958893 
	C213.217041,279.050385 234.097473,279.141876 255.438156,279.301697 
	C254.392944,280.885010 252.887497,282.399963 251.083069,284.085510 
	C228.619843,284.170929 206.455582,284.085785 184.029114,283.706238 
	C186.623474,281.927521 189.480026,280.443207 192.336594,278.958893 
z"/>
<path fill="#FBE6EA" opacity="1.000000" stroke="none" 
	d="
M216.472794,259.054718 
	C234.658783,259.161255 252.844772,259.267792 271.498444,259.419189 
	C271.011932,260.974792 270.057770,262.485596 268.904053,264.196838 
	C249.853851,264.316528 231.003159,264.235687 211.834686,263.811981 
	C213.168854,261.997650 214.820816,260.526184 216.472794,259.054718 
z"/>
<path fill="#FBEAED" opacity="1.000000" stroke="none" 
	d="
M287.311584,222.450317 
	C270.444672,222.761597 253.753128,222.767899 236.419205,222.507874 
	C234.722382,219.755173 233.522736,217.556976 230.256485,219.459442 
	C230.207321,219.228836 230.158157,218.998245 230.054749,218.418152 
	C249.043991,218.002213 268.087463,217.935760 287.604065,217.905090 
	C287.880463,219.342346 287.683716,220.743835 287.311584,222.450317 
z"/>
<path fill="#FDFDFD" opacity="1.000000" stroke="none" 
	d="
M234.553238,238.439697 
	C250.145248,238.551224 265.737244,238.662750 281.812561,238.839966 
	C281.783325,240.297729 281.270782,241.689804 280.454010,243.291229 
	C264.028503,243.444733 247.907242,243.388870 231.407501,242.904602 
	C232.203781,241.130692 233.378510,239.785202 234.553238,238.439697 
z"/>
<path fill="#FAECEE" opacity="1.000000" stroke="none" 
	d="
M98.959854,279.653015 
	C107.315483,279.306366 115.827026,279.231506 125.116440,279.171082 
	C128.287415,280.766235 130.680527,282.346985 133.073639,283.927704 
	C123.677605,284.003143 114.281563,284.078552 104.417130,284.208801 
	C102.337746,282.817322 100.726753,281.371033 98.959854,279.653015 
z"/>
<path fill="#F9E5E8" opacity="1.000000" stroke="none" 
	d="
M82.905945,260.146729 
	C90.058670,259.640198 97.323845,259.471100 105.284409,259.401550 
	C107.204689,261.028687 108.429565,262.556274 109.654449,264.083862 
	C102.062752,264.147064 94.471054,264.210266 86.410126,264.325897 
	C84.966721,263.080261 83.992554,261.782196 82.905945,260.146729 
z"/>
<path fill="#F5F5F5" opacity="1.000000" stroke="none" 
	d="
M94.279068,243.059982 
	C87.858978,243.164474 81.438889,243.268967 74.560143,243.389496 
	C73.498161,242.143982 72.894836,240.882462 72.252563,239.271271 
	C75.049057,238.887802 77.884491,238.853989 81.099457,239.300293 
	C83.073982,240.406006 85.090828,241.965073 86.180534,241.472595 
	C88.861313,240.261078 92.600449,242.015656 94.392166,238.570312 
	C94.392166,238.570312 94.708145,238.834946 94.995712,239.235703 
	C95.529114,240.403381 95.774956,241.170288 95.683105,241.950439 
	C94.989960,242.329117 94.634514,242.694550 94.279068,243.059982 
z"/>
<path fill="#070102" opacity="1.000000" stroke="none" 
	d="
M109.899002,264.254944 
	C108.429565,262.556274 107.204689,261.028687 105.777573,259.283325 
	C102.223900,253.811447 98.872459,248.557327 96.111687,243.033112 
	C97.014267,243.042953 97.326187,243.322891 97.779358,243.896729 
	C103.244614,249.386093 108.568619,254.581589 114.122513,260.049377 
	C116.506081,261.702728 118.659752,263.083771 121.046524,264.705902 
	C145.609985,277.795410 169.843185,276.923889 194.344910,264.317993 
	C197.370255,262.644897 200.044754,261.085815 203.068527,259.380920 
	C210.060760,254.024506 216.703735,248.813919 223.614349,243.403427 
	C225.264008,241.793396 226.646027,240.383270 228.028046,238.973145 
	C231.078171,236.484695 234.128296,233.996262 237.178436,231.507843 
	C236.782440,231.069427 236.386429,230.631012 235.990433,230.192612 
	C234.269974,227.803558 232.549515,225.414505 230.552582,222.819901 
	C230.302322,221.772507 230.328506,220.930634 230.305588,219.774109 
	C233.522736,217.556976 234.722382,219.755173 235.961853,222.556244 
	C238.101074,224.408905 239.868393,226.356613 242.066757,227.359070 
	C243.927750,228.207672 246.405365,227.624832 248.386459,228.316269 
	C249.780060,228.802689 250.798492,230.364014 251.984451,231.445374 
	C250.607651,231.975891 249.239288,232.530548 247.846970,233.016602 
	C247.567215,233.114258 247.167633,233.020569 246.871887,232.897964 
	C241.227936,230.558014 237.415451,232.655670 234.705627,238.132690 
	C233.378510,239.785202 232.203781,241.130692 230.936951,242.809082 
	C226.190155,248.241211 221.535477,253.340454 216.676788,258.747192 
	C214.820816,260.526184 213.168854,261.997650 211.384415,263.757874 
	C205.110611,268.824402 198.969284,273.602203 192.582275,278.669434 
	C189.480026,280.443207 186.623474,281.927521 183.586945,283.669983 
	C176.447006,285.902313 169.596283,288.579254 162.500870,289.682129 
	C152.449295,291.244537 142.814453,288.705353 133.433762,283.972168 
	C130.680527,282.346985 128.287415,280.766235 125.594055,279.067444 
	C120.243721,274.108246 115.193642,269.267120 109.899002,264.254944 
z"/>
<path fill="#E00018" opacity="1.000000" stroke="none" 
	d="
M212.767273,166.479965 
	C211.719727,167.026047 210.242447,167.939835 208.763260,167.942932 
	C171.174377,168.021744 133.585266,168.013412 95.996269,167.968414 
	C94.765755,167.966949 93.535904,167.422134 92.166191,166.774979 
	C132.129959,166.420685 172.233292,166.422012 212.767273,166.479965 
z"/>
<path fill="#FEF8F9" opacity="1.000000" stroke="none" 
	d="
M97.638107,243.602844 
	C97.326187,243.322891 97.014267,243.042953 96.389603,242.717514 
	C96.076859,242.672028 96.036240,242.768600 96.159653,242.573898 
	C96.195656,242.231873 96.108231,242.084534 96.020798,241.937210 
	C95.774956,241.170288 95.529114,240.403381 95.164139,239.354462 
	C117.301277,238.358078 139.556381,237.126862 161.814163,237.076309 
	C183.574387,237.026886 205.337372,238.181763 227.563599,238.890564 
	C226.646027,240.383270 225.264008,241.793396 223.127213,243.310089 
	C181.619705,243.396164 140.866943,243.374222 100.114197,243.365570 
	C99.288849,243.365402 98.463470,243.520294 97.638107,243.602844 
z"/>
<path fill="#0F0507" opacity="1.000000" stroke="none" 
	d="
M94.529442,238.322235 
	C92.600449,242.015656 88.861313,240.261078 86.180534,241.472595 
	C85.090828,241.965073 83.073982,240.406006 81.516663,239.363464 
	C81.882950,238.578812 82.190331,237.912796 82.543327,237.887695 
	C88.994370,237.428558 93.696014,234.762695 95.642624,228.158035 
	C95.791664,227.652405 98.105644,227.107742 98.506813,227.502487 
	C99.217491,228.201767 99.819756,229.914413 99.430321,230.664841 
	C98.083679,233.259796 96.290138,235.622833 94.529442,238.322235 
z"/>
<path fill="#E00018" opacity="1.000000" stroke="none" 
	d="
M92.115578,132.516052 
	C93.144356,131.983627 94.626579,131.041840 96.110794,131.038712 
	C134.382187,130.957840 172.653763,130.967575 210.925293,131.006378 
	C212.197647,131.007675 213.469528,131.475464 215.039154,132.086914 
	C174.414429,132.480042 133.492188,132.512054 92.115578,132.516052 
z"/>
<path fill="#E00018" opacity="1.000000" stroke="none" 
	d="
M213.597839,146.709641 
	C212.709091,147.198746 211.353928,147.948090 209.997528,147.950333 
	C172.113098,148.012939 134.228546,148.003967 96.344040,147.976181 
	C95.383904,147.975479 94.424011,147.630371 93.189514,147.111511 
	C117.521851,146.713806 142.128647,146.632263 166.735535,146.593826 
	C182.200592,146.569687 197.665741,146.610184 213.597839,146.709641 
z"/>
<path fill="#E00018" opacity="1.000000" stroke="none" 
	d="
M196.837341,125.488678 
	C195.973007,126.032570 194.657745,126.956711 193.339584,126.960846 
	C166.559189,127.045006 139.778458,127.032356 112.997871,126.986290 
	C112.105415,126.984756 111.213898,126.431473 110.185089,125.778870 
	C138.827179,125.428429 167.606110,125.434479 196.837341,125.488678 
z"/>
<path fill="#070102" opacity="1.000000" stroke="none" 
	d="
M95.683105,241.950439 
	C96.108231,242.084534 96.195656,242.231873 96.188202,242.617828 
	C95.720894,242.977036 95.348442,243.097626 94.627533,243.139099 
	C94.634514,242.694550 94.989960,242.329117 95.683105,241.950439 
z"/>
<path fill="#E2072A" opacity="1.000000" stroke="none" 
	d="
M97.779358,243.896729 
	C98.463470,243.520294 99.288849,243.365402 100.114197,243.365570 
	C140.866943,243.374222 181.619705,243.396164 222.859589,243.509979 
	C216.703735,248.813919 210.060760,254.024506 202.865417,259.352783 
	C202.313049,259.470490 202.058548,259.146118 201.777222,258.823914 
	C200.860779,258.338104 200.225830,258.032043 199.590561,258.031372 
	C172.258728,258.003113 144.926834,257.986603 117.595146,258.049866 
	C116.420540,258.052582 115.247704,258.821503 114.092850,259.390808 
	C114.111649,259.548096 113.892616,259.777100 113.892616,259.777100 
	C108.568619,254.581589 103.244614,249.386093 97.779358,243.896729 
z"/>
<path fill="#E00A2C" opacity="1.000000" stroke="none" 
	d="
M193.994080,264.432007 
	C169.843185,276.923889 145.609985,277.795410 121.522163,264.611542 
	C145.841156,264.328094 169.917618,264.380066 193.994080,264.432007 
z"/>
<path fill="#FBE4E8" opacity="1.000000" stroke="none" 
	d="
M194.344910,264.317993 
	C169.917618,264.380066 145.841156,264.328094 121.289055,264.370483 
	C118.659752,263.083771 116.506081,261.702728 114.122513,260.049377 
	C113.892616,259.777100 114.111649,259.548096 114.555275,259.412750 
	C144.018784,259.233643 173.038666,259.189880 202.058548,259.146118 
	C202.058548,259.146118 202.313049,259.470490 202.516159,259.498627 
	C200.044754,261.085815 197.370255,262.644897 194.344910,264.317993 
z"/>
<path fill="#E00018" opacity="1.000000" stroke="none" 
	d="
M201.777222,258.823914 
	C173.038666,259.189880 144.018784,259.233643 114.536469,259.255432 
	C115.247704,258.821503 116.420540,258.052582 117.595146,258.049866 
	C144.926834,257.986603 172.258728,258.003113 199.590561,258.031372 
	C200.225830,258.032043 200.860779,258.338104 201.777222,258.823914 
z"/>
</svg>