<svg version="1.1" id="Layer_1" xmlns="http://www.w3.org/2000/svg" xmlns:xlink="http://www.w3.org/1999/xlink" x="0px" y="0px"
	 width="100%" viewBox="0 0 350 343" enable-background="new 0 0 350 343" xml:space="preserve">
<path fill="#FDFEFE" opacity="1.000000" stroke="none" 
	d="
M346.000000,1.000005 
	C347.665863,1.000000 349.331757,1.000000 350.998230,1.000000 
	C350.998810,115.278130 350.998810,229.556259 350.998810,343.917175 
	C234.444122,343.917175 117.888168,343.917175 1.166104,343.917175 
	C1.166104,229.666885 1.166104,115.333443 1.166104,1.000000 
	C2.670163,1.000000 4.336021,1.000000 6.403641,1.250663 
	C6.536570,1.966132 6.267738,2.430938 5.619529,3.124036 
	C5.135053,4.837930 4.938155,6.323519 4.937950,7.809135 
	C4.923530,112.121513 4.924824,216.433899 4.924816,320.746277 
	C4.924816,322.026489 4.924816,323.306732 4.924816,324.621887 
	C31.625698,324.621887 57.833675,324.621887 83.946960,324.621887 
	C83.946960,315.670197 83.946960,307.062408 83.946960,297.894104 
	C66.345406,297.894104 48.978115,297.894104 31.720871,297.894104 
	C31.720871,208.277710 31.720871,119.226791 31.720871,30.259926 
	C128.652267,30.259926 225.227982,30.259926 321.837952,30.259926 
	C321.837952,119.599915 321.837952,208.661865 321.837952,298.243927 
	C304.212006,298.243927 286.830688,298.243927 269.449463,298.243927 
	C269.449463,307.361603 269.449463,315.956207 269.449463,324.640991 
	C295.909515,324.640991 322.111755,324.640991 348.328644,324.640991 
	C348.474335,323.848877 348.639404,323.370331 348.639465,322.891785 
	C348.654144,217.412994 348.662720,111.934196 348.591888,6.455440 
	C348.591095,5.263949 347.553833,4.073154 346.885132,2.640594 
	C346.513275,1.932773 346.256622,1.466392 346.000000,1.000005 
M218.496033,298.057373 
	C184.610046,298.057373 150.724045,298.057373 115.459671,298.057373 
	C117.345581,299.339844 118.024521,300.028900 118.845276,300.325226 
	C129.754456,304.264221 140.566956,308.530975 151.650513,311.904755 
	C158.506989,313.991821 158.695511,313.372833 158.695663,320.784241 
	C158.695801,327.694214 158.695694,334.604187 158.695694,341.589966 
	C170.773209,341.589966 182.011932,341.589966 193.754150,341.589966 
	C193.754150,332.054199 193.754150,322.800171 193.754150,313.305389 
	C208.292587,310.441071 222.013123,306.498383 234.228806,298.057434 
	C229.316925,298.057434 224.405060,298.057434 218.496033,298.057373 
M85.686783,234.761551 
	C83.436058,224.722580 81.246056,214.669144 78.860001,204.662445 
	C78.551697,203.369507 77.265648,201.343140 76.370247,201.309418 
	C69.095100,201.035339 61.805099,201.155380 54.243557,201.155380 
	C54.243557,202.673859 54.142944,203.651352 54.258133,204.602722 
	C58.120441,236.502319 71.975609,263.098907 95.861122,284.724274 
	C101.913193,290.203644 108.080811,288.350281 115.500221,288.696777 
	C102.489998,271.770294 92.358101,254.654175 85.686783,234.761551 
M103.756165,110.273911 
	C106.505829,106.391251 109.255493,102.508598 112.103355,98.487282 
	C101.600357,96.229683 97.677864,97.222801 90.412102,104.479027 
	C73.770058,121.099228 62.388027,140.761948 57.076122,163.736694 
	C55.519878,170.467667 54.717567,177.372971 53.496315,184.634750 
	C62.161877,184.634750 69.891846,184.634750 78.070122,184.634750 
	C79.507713,157.541779 88.319901,133.115753 103.756165,110.273911 
M261.398102,249.852051 
	C253.985535,262.751709 246.572983,275.651337 239.129303,288.605133 
	C243.487228,288.228058 248.510223,290.333527 253.134613,286.404358 
	C274.681519,268.096680 288.596802,245.202881 294.741699,217.637909 
	C295.910858,212.393250 296.374786,206.991394 297.196564,201.442993 
	C289.085480,201.442993 281.850555,201.442993 274.363708,201.442993 
	C272.863251,218.256332 268.360962,234.001862 261.398102,249.852051 
M265.238098,109.267410 
	C263.281433,107.225426 261.133484,105.332481 259.404480,103.113136 
	C254.469650,96.778786 247.985458,97.123528 240.237701,98.275536 
	C260.682739,124.024658 273.062042,152.353821 274.836487,184.551331 
	C282.682617,184.551331 289.743195,184.551331 297.240875,184.551331 
	C295.066833,155.761749 284.721588,130.969193 265.238098,109.267410 
M238.637100,201.121490 
	C230.531860,201.190918 232.019470,200.322327 230.894165,208.140747 
	C228.625244,223.904541 226.185165,239.698730 222.602448,255.199982 
	C220.004013,266.442596 215.453735,277.234070 211.588150,288.781250 
	C214.598434,288.781250 217.549240,288.580017 220.459732,288.836395 
	C223.532761,289.107117 225.314774,287.882324 226.862000,285.293335 
	C238.123413,266.449524 247.000626,246.628784 251.338776,225.014893 
	C252.881927,217.326492 253.643188,209.481140 254.845627,201.121643 
	C248.875885,201.121643 244.240707,201.121643 238.637100,201.121490 
M253.917603,176.788834 
	C250.880219,149.476578 241.035492,124.580734 226.924179,101.237938 
	C226.022842,99.746956 224.185135,98.137451 222.584625,97.895477 
	C219.197723,97.383408 215.679581,97.739456 212.007523,97.739456 
	C212.126999,98.910172 212.041946,99.614487 212.279572,100.184219 
	C223.197403,126.361191 230.163467,153.445129 231.318039,181.906570 
	C231.359909,182.938568 232.832932,184.748718 233.689087,184.778976 
	C240.442093,185.017853 247.207321,184.911682 253.761734,184.911682 
	C254.030167,183.846222 254.188171,183.522171 254.179749,183.202499 
	C254.131485,181.371185 254.043655,179.540894 253.917603,176.788834 
M103.651459,201.120926 
	C102.086433,201.231216 100.521408,201.341507 99.033829,201.446335 
	C98.889671,202.550934 98.746284,203.043869 98.773544,203.527206 
	C100.485130,233.882965 111.398636,261.114685 127.161102,286.663422 
	C127.804039,287.705505 129.473938,288.571869 130.738846,288.682861 
	C133.974350,288.966736 137.251358,288.777527 141.268997,288.777527 
	C129.241669,260.298462 122.124039,231.459824 120.686104,201.121048 
	C114.913361,201.121048 109.767784,201.121048 103.651459,201.120926 
M165.874252,239.613754 
	C165.410736,226.881744 164.947235,214.149719 164.486557,201.495605 
	C157.090530,201.495605 150.181900,201.495605 142.725342,201.495605 
	C143.168167,209.016617 143.041504,216.216904 144.109024,223.235565 
	C147.255402,243.922607 150.834473,264.544708 154.404205,285.164520 
	C154.630844,286.473694 156.126389,288.450653 157.198959,288.566437 
	C161.043213,288.981354 164.959473,288.729034 168.954498,288.729034 
	C167.898636,272.089264 166.898926,256.334717 165.874252,239.613754 
M209.112183,206.615952 
	C209.112183,204.992859 209.112183,203.369751 209.112183,201.435883 
	C201.623642,201.435883 194.569061,201.435883 187.331558,201.435883 
	C186.367508,230.492310 185.410950,259.322906 184.433640,288.779388 
	C187.342270,288.779388 190.136063,288.600555 192.896530,288.827393 
	C195.941040,289.077545 197.286484,287.953857 198.013855,284.920319 
	C204.114151,259.478271 208.319977,233.778351 209.112183,206.615952 
M143.060455,178.499451 
	C143.060455,180.565796 143.060455,182.632141 143.060455,184.540573 
	C150.720123,184.540573 157.609451,184.540573 164.092758,184.540573 
	C165.607895,155.502762 167.101028,126.886963 168.598160,98.194229 
	C168.084366,98.043831 167.626160,97.801880 167.163040,97.792130 
	C164.669815,97.739677 162.148560,97.969322 159.687958,97.675140 
	C156.378265,97.279449 155.000504,98.672409 154.246063,101.782021 
	C148.200455,126.700500 144.256943,151.918793 143.060455,178.499451 
M184.180603,101.385727 
	C185.304474,129.090729 186.428360,156.795731 187.555862,184.589981 
	C194.670502,184.589981 201.729767,184.589981 209.090500,184.589981 
	C209.090500,182.433777 209.139542,180.625168 209.083099,178.819870 
	C208.316071,154.290588 204.707321,130.143845 198.931442,106.328957 
	C196.456711,96.125252 198.983246,97.928764 187.671371,97.737160 
	C187.007935,97.725929 186.079117,97.530518 185.734558,97.877861 
	C185.038895,98.579170 184.660324,99.595009 184.180603,101.385727 
M124.011063,104.494545 
	C109.810982,129.266464 99.968147,155.391495 98.636551,184.640335 
	C106.260742,184.640335 113.305664,184.640335 120.749184,184.640335 
	C121.737206,154.475006 129.122787,125.948402 140.723038,97.928467 
	C133.737015,97.836639 127.122116,95.678085 124.011063,104.494545 
M135.791000,76.215851 
	C128.061829,79.682114 120.332642,83.148384 112.603462,86.614647 
	C112.789291,86.969887 112.975113,87.325127 113.160942,87.680367 
	C154.765381,87.680367 196.369827,87.680367 237.974274,87.680367 
	C205.873474,68.355370 172.061234,64.607803 135.791000,76.215851 
z"/>
<path fill="#FDFDFD" opacity="1.000000" stroke="none" 
	d="
M345.533020,1.000005 
	C346.256622,1.466392 346.513275,1.932773 346.424774,2.734795 
	C233.879074,3.076083 121.678505,3.082309 9.477930,3.079435 
	C8.318254,3.079406 7.158581,2.959621 5.998907,2.895743 
	C6.267738,2.430938 6.536570,1.966132 6.902701,1.250663 
	C119.688683,1.000000 232.377365,1.000000 345.533020,1.000005 
z"/>
<path fill="#030303" opacity="1.000000" stroke="none" 
	d="
M5.619529,3.124036 
	C7.158581,2.959621 8.318254,3.079406 9.477930,3.079435 
	C121.678505,3.082309 233.879074,3.076083 346.540009,2.976235 
	C347.553833,4.073154 348.591095,5.263949 348.591888,6.455440 
	C348.662720,111.934196 348.654144,217.412994 348.639465,322.891785 
	C348.639404,323.370331 348.474335,323.848877 348.328644,324.640991 
	C322.111755,324.640991 295.909515,324.640991 269.449463,324.640991 
	C269.449463,315.956207 269.449463,307.361603 269.449463,298.243927 
	C286.830688,298.243927 304.212006,298.243927 321.837952,298.243927 
	C321.837952,208.661865 321.837952,119.599915 321.837952,30.259926 
	C225.227982,30.259926 128.652267,30.259926 31.720871,30.259926 
	C31.720871,119.226791 31.720871,208.277710 31.720871,297.894104 
	C48.978115,297.894104 66.345406,297.894104 83.946960,297.894104 
	C83.946960,307.062408 83.946960,315.670197 83.946960,324.621887 
	C57.833675,324.621887 31.625698,324.621887 4.924816,324.621887 
	C4.924816,323.306732 4.924816,322.026489 4.924816,320.746277 
	C4.924824,216.433899 4.923530,112.121513 4.937950,7.809135 
	C4.938155,6.323519 5.135053,4.837930 5.619529,3.124036 
z"/>
<path fill="#7887BD" opacity="1.000000" stroke="none" 
	d="
M218.994598,298.057404 
	C224.405060,298.057434 229.316925,298.057434 234.228806,298.057434 
	C222.013123,306.498383 208.292587,310.441071 193.754150,313.305389 
	C193.754150,322.800171 193.754150,332.054199 193.754150,341.589966 
	C182.011932,341.589966 170.773209,341.589966 158.695694,341.589966 
	C158.695694,334.604187 158.695801,327.694214 158.695663,320.784241 
	C158.695511,313.372833 158.506989,313.991821 151.650513,311.904755 
	C140.566956,308.530975 129.754456,304.264221 118.845276,300.325226 
	C118.024521,300.028900 117.345581,299.339844 115.459671,298.057373 
	C150.724045,298.057373 184.610046,298.057373 218.994598,298.057404 
z"/>
<path fill="#7887BD" opacity="1.000000" stroke="none" 
	d="
M85.801704,235.139832 
	C92.358101,254.654175 102.489998,271.770294 115.500221,288.696777 
	C108.080811,288.350281 101.913193,290.203644 95.861122,284.724274 
	C71.975609,263.098907 58.120441,236.502319 54.258133,204.602722 
	C54.142944,203.651352 54.243557,202.673859 54.243557,201.155380 
	C61.805099,201.155380 69.095100,201.035339 76.370247,201.309418 
	C77.265648,201.343140 78.551697,203.369507 78.860001,204.662445 
	C81.246056,214.669144 83.436058,224.722580 85.801704,235.139832 
z"/>
<path fill="#7886BD" opacity="1.000000" stroke="none" 
	d="
M103.542747,110.565063 
	C88.319901,133.115753 79.507713,157.541779 78.070122,184.634750 
	C69.891846,184.634750 62.161877,184.634750 53.496315,184.634750 
	C54.717567,177.372971 55.519878,170.467667 57.076122,163.736694 
	C62.388027,140.761948 73.770058,121.099228 90.412102,104.479027 
	C97.677864,97.222801 101.600357,96.229683 112.103355,98.487282 
	C109.255493,102.508598 106.505829,106.391251 103.542747,110.565063 
z"/>
<path fill="#7887BD" opacity="1.000000" stroke="none" 
	d="
M261.567352,249.511322 
	C268.360962,234.001862 272.863251,218.256332 274.363708,201.442993 
	C281.850555,201.442993 289.085480,201.442993 297.196564,201.442993 
	C296.374786,206.991394 295.910858,212.393250 294.741699,217.637909 
	C288.596802,245.202881 274.681519,268.096680 253.134613,286.404358 
	C248.510223,290.333527 243.487228,288.228058 239.129303,288.605133 
	C246.572983,275.651337 253.985535,262.751709 261.567352,249.511322 
z"/>
<path fill="#7887BD" opacity="1.000000" stroke="none" 
	d="
M265.466156,109.537399 
	C284.721588,130.969193 295.066833,155.761749 297.240875,184.551331 
	C289.743195,184.551331 282.682617,184.551331 274.836487,184.551331 
	C273.062042,152.353821 260.682739,124.024658 240.237701,98.275536 
	C247.985458,97.123528 254.469650,96.778786 259.404480,103.113136 
	C261.133484,105.332481 263.281433,107.225426 265.466156,109.537399 
z"/>
<path fill="#7887BD" opacity="1.000000" stroke="none" 
	d="
M239.121307,201.121567 
	C244.240707,201.121643 248.875885,201.121643 254.845627,201.121643 
	C253.643188,209.481140 252.881927,217.326492 251.338776,225.014893 
	C247.000626,246.628784 238.123413,266.449524 226.862000,285.293335 
	C225.314774,287.882324 223.532761,289.107117 220.459732,288.836395 
	C217.549240,288.580017 214.598434,288.781250 211.588150,288.781250 
	C215.453735,277.234070 220.004013,266.442596 222.602448,255.199982 
	C226.185165,239.698730 228.625244,223.904541 230.894165,208.140747 
	C232.019470,200.322327 230.531860,201.190918 239.121307,201.121567 
z"/>
<path fill="#7886BD" opacity="1.000000" stroke="none" 
	d="
M253.943420,177.249542 
	C254.043655,179.540894 254.131485,181.371185 254.179749,183.202499 
	C254.188171,183.522171 254.030167,183.846222 253.761734,184.911682 
	C247.207321,184.911682 240.442093,185.017853 233.689087,184.778976 
	C232.832932,184.748718 231.359909,182.938568 231.318039,181.906570 
	C230.163467,153.445129 223.197403,126.361191 212.279572,100.184219 
	C212.041946,99.614487 212.126999,98.910172 212.007523,97.739456 
	C215.679581,97.739456 219.197723,97.383408 222.584625,97.895477 
	C224.185135,98.137451 226.022842,99.746956 226.924179,101.237938 
	C241.035492,124.580734 250.880219,149.476578 253.943420,177.249542 
z"/>
<path fill="#7887BD" opacity="1.000000" stroke="none" 
	d="
M104.136833,201.120987 
	C109.767784,201.121048 114.913361,201.121048 120.686104,201.121048 
	C122.124039,231.459824 129.241669,260.298462 141.268997,288.777527 
	C137.251358,288.777527 133.974350,288.966736 130.738846,288.682861 
	C129.473938,288.571869 127.804039,287.705505 127.161102,286.663422 
	C111.398636,261.114685 100.485130,233.882965 98.773544,203.527206 
	C98.746284,203.043869 98.889671,202.550934 99.033829,201.446335 
	C100.521408,201.341507 102.086433,201.231216 104.136833,201.120987 
z"/>
<path fill="#7887BD" opacity="1.000000" stroke="none" 
	d="
M165.886749,240.096985 
	C166.898926,256.334717 167.898636,272.089264 168.954498,288.729034 
	C164.959473,288.729034 161.043213,288.981354 157.198959,288.566437 
	C156.126389,288.450653 154.630844,286.473694 154.404205,285.164520 
	C150.834473,264.544708 147.255402,243.922607 144.109024,223.235565 
	C143.041504,216.216904 143.168167,209.016617 142.725342,201.495605 
	C150.181900,201.495605 157.090530,201.495605 164.486557,201.495605 
	C164.947235,214.149719 165.410736,226.881744 165.886749,240.096985 
z"/>
<path fill="#7887BD" opacity="1.000000" stroke="none" 
	d="
M209.105713,207.097870 
	C208.319977,233.778351 204.114151,259.478271 198.013855,284.920319 
	C197.286484,287.953857 195.941040,289.077545 192.896530,288.827393 
	C190.136063,288.600555 187.342270,288.779388 184.433640,288.779388 
	C185.410950,259.322906 186.367508,230.492310 187.331558,201.435883 
	C194.569061,201.435883 201.623642,201.435883 209.112183,201.435883 
	C209.112183,203.369751 209.112183,204.992859 209.105713,207.097870 
z"/>
<path fill="#7887BD" opacity="1.000000" stroke="none" 
	d="
M143.067276,178.024445 
	C144.256943,151.918793 148.200455,126.700500 154.246063,101.782021 
	C155.000504,98.672409 156.378265,97.279449 159.687958,97.675140 
	C162.148560,97.969322 164.669815,97.739677 167.163040,97.792130 
	C167.626160,97.801880 168.084366,98.043831 168.598160,98.194229 
	C167.101028,126.886963 165.607895,155.502762 164.092758,184.540573 
	C157.609451,184.540573 150.720123,184.540573 143.060455,184.540573 
	C143.060455,182.632141 143.060455,180.565796 143.067276,178.024445 
z"/>
<path fill="#7886BD" opacity="1.000000" stroke="none" 
	d="
M184.165787,100.933426 
	C184.660324,99.595009 185.038895,98.579170 185.734558,97.877861 
	C186.079117,97.530518 187.007935,97.725929 187.671371,97.737160 
	C198.983246,97.928764 196.456711,96.125252 198.931442,106.328957 
	C204.707321,130.143845 208.316071,154.290588 209.083099,178.819870 
	C209.139542,180.625168 209.090500,182.433777 209.090500,184.589981 
	C201.729767,184.589981 194.670502,184.589981 187.555862,184.589981 
	C186.428360,156.795731 185.304474,129.090729 184.165787,100.933426 
z"/>
<path fill="#7886BD" opacity="1.000000" stroke="none" 
	d="
M124.205093,104.178490 
	C127.122116,95.678085 133.737015,97.836639 140.723038,97.928467 
	C129.122787,125.948402 121.737206,154.475006 120.749184,184.640335 
	C113.305664,184.640335 106.260742,184.640335 98.636551,184.640335 
	C99.968147,155.391495 109.810982,129.266464 124.205093,104.178490 
z"/>
<path fill="#7887BD" opacity="1.000000" stroke="none" 
	d="
M136.170746,76.109802 
	C172.061234,64.607803 205.873474,68.355370 237.974274,87.680367 
	C196.369827,87.680367 154.765381,87.680367 113.160942,87.680367 
	C112.975113,87.325127 112.789291,86.969887 112.603462,86.614647 
	C120.332642,83.148384 128.061829,79.682114 136.170746,76.109802 
z"/>
</svg>