<svg version="1.1" id="Layer_1" xmlns="http://www.w3.org/2000/svg" xmlns:xlink="http://www.w3.org/1999/xlink" x="0px" y="0px"
	 width="100%" viewBox="0 0 350 301" enable-background="new 0 0 350 301" xml:space="preserve">
<path fill="#FDFDFE" opacity="1.000000" stroke="none" 
	d="
M1.000000,105.000000 
	C1.000000,70.013245 1.000000,35.526493 1.000000,1.019871 
	C117.608620,1.019871 234.217239,1.019871 350.912933,1.019871 
	C350.912933,101.236702 350.912933,201.473495 350.912933,301.855164 
	C234.333466,301.855164 117.666756,301.855164 1.000000,301.855164 
	C1.000000,236.449524 1.000000,170.974762 1.000000,105.000000 
M41.096447,167.551605 
	C41.394417,167.672684 41.692390,167.793762 42.904449,168.102158 
	C44.900513,168.112610 46.954258,167.820602 48.882202,168.188263 
	C55.582016,169.465973 59.107445,165.503113 62.705452,160.406845 
	C59.725307,160.072968 57.287651,159.817108 54.854706,159.522324 
	C52.530518,159.240723 50.211231,158.918625 47.584789,158.574356 
	C50.667885,156.127487 53.496098,154.304764 55.803978,151.968079 
	C61.534893,146.165634 60.165642,140.171280 52.475849,137.336609 
	C49.450432,136.221344 46.187103,135.751480 42.593590,134.881546 
	C49.259529,125.970535 55.645226,117.434151 62.287266,108.555092 
	C54.779800,106.854042 48.166176,105.355522 41.166031,103.769424 
	C41.166031,125.153465 41.166031,146.085373 41.096447,167.551605 
M316.189026,100.245850 
	C316.015594,100.040062 315.842194,99.834267 315.568695,98.803429 
	C316.154266,96.675652 316.739807,94.547874 317.341919,92.359955 
	C303.738281,89.321259 290.552155,86.375824 275.901337,83.103218 
	C280.578278,92.580734 279.104828,103.172791 288.109528,109.781418 
	C286.444702,111.286156 284.686432,112.875381 282.841125,114.543259 
	C281.458740,112.984406 280.478668,111.879265 279.212891,110.133553 
	C276.929169,107.073990 274.990845,103.659569 272.288971,101.029625 
	C266.862335,95.747482 265.934845,90.304161 270.295380,84.037003 
	C273.119354,79.978241 271.868256,76.704323 268.136261,73.699432 
	C263.062988,76.499466 257.914764,79.177498 252.976440,82.198669 
	C251.938614,82.833588 250.930130,84.885208 251.167969,86.019989 
	C253.072861,95.108963 255.185974,104.159065 257.522522,113.146408 
	C257.795746,114.197350 259.813324,114.794785 261.847717,115.866272 
	C290.445312,119.847206 319.042877,123.828148 348.034485,127.863937 
	C348.034485,120.870926 347.895416,114.249519 348.101837,107.638908 
	C348.186310,104.933357 347.098267,103.853661 344.695953,103.166100 
	C339.427368,101.658211 334.075531,100.285408 329.029480,98.199852 
	C324.013855,96.126869 319.935059,96.106758 316.189026,100.245850 
M264.141571,274.968170 
	C258.217041,274.968170 252.292480,274.968170 246.304718,274.968170 
	C246.304718,283.437622 246.304718,291.212677 246.304718,299.273865 
	C270.566498,299.273865 294.646240,299.273865 318.830017,299.273865 
	C318.830017,245.961166 318.830017,192.866425 318.830017,139.539993 
	C310.866547,139.539993 303.117706,139.539993 294.832672,139.539993 
	C294.832672,183.198166 294.832672,226.644867 294.113678,270.073395 
	C271.759735,257.893127 249.396713,245.729416 227.081589,233.478424 
	C226.082520,232.929962 224.948715,231.647430 224.842545,230.608246 
	C224.051407,222.865067 217.631500,219.113968 210.305298,220.400970 
	C202.644608,221.746750 196.760468,218.806854 190.545853,215.678802 
	C183.259476,212.011292 175.922409,208.444580 168.616364,204.815964 
	C164.365616,202.704803 160.132599,200.557983 155.751190,198.356659 
	C160.381302,189.286728 163.425049,180.329346 162.942673,170.601379 
	C162.783569,167.393051 163.955139,165.404449 166.190445,163.357315 
	C186.521042,144.738129 210.241608,131.843994 235.748306,121.951607 
	C241.897476,119.566734 248.124023,117.381332 254.642532,114.983734 
	C251.073196,104.063660 247.631470,93.533905 244.102081,82.736008 
	C221.787476,85.040817 199.775604,86.657875 179.075668,95.723206 
	C180.663223,99.747078 181.984238,103.095375 183.467239,106.854225 
	C170.664307,111.553581 158.218689,116.189178 145.693283,120.598129 
	C144.629791,120.972481 142.889740,120.070236 141.711151,119.354240 
	C137.777359,116.964462 133.956024,114.389534 129.807556,111.701492 
	C119.773178,131.613754 109.965446,151.055832 100.177597,170.507904 
	C95.335869,180.130219 95.352386,180.139145 84.403854,179.180145 
	C81.417099,178.918533 78.430717,178.652710 75.444244,178.387970 
	C64.075188,177.380112 52.706173,176.371902 41.255066,175.356552 
	C41.255066,180.909027 41.255066,185.994461 41.255066,191.643387 
	C48.552647,191.643387 55.730946,190.640503 62.474659,191.922913 
	C69.342300,193.228867 75.776939,196.797699 82.411156,199.349762 
	C87.581474,201.338669 92.767097,203.287796 98.332848,205.401550 
	C97.232849,206.571884 96.565636,207.292969 95.886505,208.002686 
	C74.582642,230.265640 53.277630,252.527481 31.103930,274.935638 
	C26.973614,275.669586 28.031525,272.630554 28.030872,270.561401 
	C28.005911,191.414200 28.009621,112.266991 28.009520,33.119781 
	C28.009518,31.832943 28.009518,30.546104 28.009518,29.127773 
	C117.142685,29.127773 205.842789,29.127773 294.914124,29.127773 
	C294.914124,45.334438 294.914124,61.264416 294.914124,77.319016 
	C303.148468,77.319016 311.006592,77.319016 318.654480,77.319016 
	C318.654480,52.721561 318.654480,28.498947 318.654480,4.404874 
	C213.518433,4.404874 108.775887,4.404874 4.089830,4.404874 
	C4.089830,102.879005 4.089830,201.069702 4.089830,299.343445 
	C28.241198,299.343445 52.016350,299.343445 76.055779,299.343445 
	C76.055779,291.225769 76.055779,283.324310 76.055779,274.824341 
	C69.282600,274.824341 62.659832,274.824341 56.340179,274.252106 
	C77.221809,255.129272 98.160515,236.067963 118.919052,216.812424 
	C121.792900,214.146683 123.934311,213.886292 127.598213,215.298019 
	C146.661957,222.643494 165.841156,229.698853 185.092499,236.539047 
	C188.543289,237.765137 191.508972,238.631409 194.223404,241.629837 
	C196.667252,244.329361 200.964005,246.588531 204.552368,246.759644 
	C212.232651,247.125931 218.596558,250.214355 225.086884,253.631653 
	C237.012222,259.910675 249.047180,265.981201 261.011810,272.186157 
	C262.453186,272.933716 263.741913,273.975708 264.141571,274.968170 
M146.713501,58.132317 
	C140.751068,59.042564 137.763504,63.010048 136.471848,69.178055 
	C135.069275,67.393570 134.130951,66.262260 133.259827,65.081398 
	C126.920853,56.488514 127.089851,57.440739 116.612808,59.247208 
	C100.454567,62.033241 88.542557,69.853233 80.430962,84.020187 
	C78.113243,88.068108 74.823135,91.559258 71.911842,95.394051 
	C76.181870,96.872620 78.395081,95.267715 80.423378,92.318306 
	C83.627953,87.658432 87.083229,83.148140 90.742126,78.837456 
	C91.834984,77.549927 93.969467,76.429565 95.614265,76.446411 
	C104.770996,76.540245 113.925987,76.960411 123.077377,77.364029 
	C128.710114,77.612457 135.476791,76.226715 139.650604,78.867767 
	C144.033569,81.641159 145.979172,88.316315 148.901672,93.337738 
	C155.337616,104.395958 155.315155,104.409660 167.272110,99.731842 
	C167.415985,99.675560 167.524277,99.528320 167.856888,99.249306 
	C166.670746,96.644997 165.451584,93.968201 163.850815,90.453537 
	C167.554901,91.305481 170.559250,91.996483 174.031967,92.795212 
	C173.420593,88.623596 172.833344,84.616608 172.224106,80.459656 
	C184.956055,83.943909 190.576630,82.248611 190.922607,75.341362 
	C187.580963,75.045387 184.156204,74.242752 180.837296,74.557236 
	C174.853333,75.124260 171.023804,73.939934 169.364288,67.204475 
	C168.125748,62.177624 164.463089,58.303791 157.424164,57.850864 
	C163.631653,62.340370 164.271439,67.800575 163.630264,74.174721 
	C157.513672,73.892387 151.913971,73.633911 144.909500,73.310593 
	C146.427139,67.723457 147.743652,62.876759 149.052460,58.058395 
	C148.805115,58.058395 148.146774,58.058395 146.713501,58.132317 
M97.112137,115.594330 
	C89.327217,124.332657 81.542305,133.070984 74.448074,141.034042 
	C84.630051,142.785889 96.877083,144.893021 110.282173,147.199417 
	C106.321442,142.661865 103.209808,139.097061 100.616150,136.125671 
	C108.183113,127.715111 115.428810,119.661636 122.462608,111.843681 
	C118.533218,111.553963 113.820015,111.621033 109.282646,110.760727 
	C104.280663,109.812325 100.552223,111.071541 97.112137,115.594330 
M246.968536,73.900322 
	C250.220215,71.878082 248.916412,69.915932 246.520721,68.701698 
	C237.465347,64.112030 227.556259,62.748127 217.114426,60.678825 
	C224.875244,73.109482 233.839798,77.070198 246.968536,73.900322 
M260.294373,66.201889 
	C256.452423,63.386890 252.610489,60.571896 248.588623,57.625069 
	C245.466232,61.836372 246.650452,64.889259 250.105576,67.596947 
	C256.142365,72.327827 261.731079,73.363335 265.092316,69.908188 
	C263.649872,68.801605 262.249939,67.727638 260.294373,66.201889 
z"/>
<path fill="#030303" opacity="1.000000" stroke="none" 
	d="
M56.037064,274.824341 
	C62.659832,274.824341 69.282600,274.824341 76.055779,274.824341 
	C76.055779,283.324310 76.055779,291.225769 76.055779,299.343445 
	C52.016350,299.343445 28.241198,299.343445 4.089830,299.343445 
	C4.089830,201.069702 4.089830,102.879005 4.089830,4.404874 
	C108.775887,4.404874 213.518433,4.404874 318.654480,4.404874 
	C318.654480,28.498947 318.654480,52.721561 318.654480,77.319016 
	C311.006592,77.319016 303.148468,77.319016 294.914124,77.319016 
	C294.914124,61.264416 294.914124,45.334438 294.914124,29.127773 
	C205.842789,29.127773 117.142685,29.127773 28.009518,29.127773 
	C28.009518,30.546104 28.009518,31.832943 28.009520,33.119781 
	C28.009621,112.266991 28.005911,191.414200 28.030872,270.561401 
	C28.031525,272.630554 26.973614,275.669586 31.998165,274.938904 
	C40.607288,274.902893 48.322178,274.863617 56.037064,274.824341 
z"/>
<path fill="#2B4896" opacity="1.000000" stroke="none" 
	d="
M56.188622,274.538208 
	C48.322178,274.863617 40.607288,274.902893 32.432598,274.865845 
	C53.277630,252.527481 74.582642,230.265640 95.886505,208.002686 
	C96.565636,207.292969 97.232849,206.571884 98.332848,205.401550 
	C92.767097,203.287796 87.581474,201.338669 82.411156,199.349762 
	C75.776939,196.797699 69.342300,193.228867 62.474659,191.922913 
	C55.730946,190.640503 48.552647,191.643387 41.255066,191.643387 
	C41.255066,185.994461 41.255066,180.909027 41.255066,175.356552 
	C52.706173,176.371902 64.075188,177.380112 75.444244,178.387970 
	C78.430717,178.652710 81.417099,178.918533 84.403854,179.180145 
	C95.352386,180.139145 95.335869,180.130219 100.177597,170.507904 
	C109.965446,151.055832 119.773178,131.613754 129.807556,111.701492 
	C133.956024,114.389534 137.777359,116.964462 141.711151,119.354240 
	C142.889740,120.070236 144.629791,120.972481 145.693283,120.598129 
	C158.218689,116.189178 170.664307,111.553581 183.467239,106.854225 
	C181.984238,103.095375 180.663223,99.747078 179.075668,95.723206 
	C199.775604,86.657875 221.787476,85.040817 244.102081,82.736008 
	C247.631470,93.533905 251.073196,104.063660 254.642532,114.983734 
	C248.124023,117.381332 241.897476,119.566734 235.748306,121.951607 
	C210.241608,131.843994 186.521042,144.738129 166.190445,163.357315 
	C163.955139,165.404449 162.783569,167.393051 162.942673,170.601379 
	C163.425049,180.329346 160.381302,189.286728 155.751190,198.356659 
	C160.132599,200.557983 164.365616,202.704803 168.616364,204.815964 
	C175.922409,208.444580 183.259476,212.011292 190.545853,215.678802 
	C196.760468,218.806854 202.644608,221.746750 210.305298,220.400970 
	C217.631500,219.113968 224.051407,222.865067 224.842545,230.608246 
	C224.948715,231.647430 226.082520,232.929962 227.081589,233.478424 
	C249.396713,245.729416 271.759735,257.893127 294.544983,270.494385 
	C295.384125,274.134735 294.004639,275.139404 290.778870,275.049622 
	C282.224792,274.811493 273.661194,274.914124 265.101379,274.881226 
	C263.741913,273.975708 262.453186,272.933716 261.011810,272.186157 
	C249.047180,265.981201 237.012222,259.910675 225.086884,253.631653 
	C218.596558,250.214355 212.232651,247.125931 204.552368,246.759644 
	C200.964005,246.588531 196.667252,244.329361 194.223404,241.629837 
	C191.508972,238.631409 188.543289,237.765137 185.092499,236.539047 
	C165.841156,229.698853 146.661957,222.643494 127.598213,215.298019 
	C123.934311,213.886292 121.792900,214.146683 118.919052,216.812424 
	C98.160515,236.067963 77.221809,255.129272 56.188622,274.538208 
z"/>
<path fill="#030303" opacity="1.000000" stroke="none" 
	d="
M264.621460,274.924683 
	C273.661194,274.914124 282.224792,274.811493 290.778870,275.049622 
	C294.004639,275.139404 295.384125,274.134735 294.904480,270.503479 
	C294.832672,226.644867 294.832672,183.198166 294.832672,139.539993 
	C303.117706,139.539993 310.866547,139.539993 318.830017,139.539993 
	C318.830017,192.866425 318.830017,245.961166 318.830017,299.273865 
	C294.646240,299.273865 270.566498,299.273865 246.304718,299.273865 
	C246.304718,291.212677 246.304718,283.437622 246.304718,274.968170 
	C252.292480,274.968170 258.217041,274.968170 264.621460,274.924683 
z"/>
<path fill="#2E4A97" opacity="1.000000" stroke="none" 
	d="
M147.100983,58.095356 
	C148.146774,58.058395 148.805115,58.058395 149.052460,58.058395 
	C147.743652,62.876759 146.427139,67.723457 144.909500,73.310593 
	C151.913971,73.633911 157.513672,73.892387 163.630264,74.174721 
	C164.271439,67.800575 163.631653,62.340370 157.424164,57.850864 
	C164.463089,58.303791 168.125748,62.177624 169.364288,67.204475 
	C171.023804,73.939934 174.853333,75.124260 180.837296,74.557236 
	C184.156204,74.242752 187.580963,75.045387 190.922607,75.341362 
	C190.576630,82.248611 184.956055,83.943909 172.224106,80.459656 
	C172.833344,84.616608 173.420593,88.623596 174.031967,92.795212 
	C170.559250,91.996483 167.554901,91.305481 163.850815,90.453537 
	C165.451584,93.968201 166.670746,96.644997 167.856888,99.249306 
	C167.524277,99.528320 167.415985,99.675560 167.272110,99.731842 
	C155.315155,104.409660 155.337616,104.395958 148.901672,93.337738 
	C145.979172,88.316315 144.033569,81.641159 139.650604,78.867767 
	C135.476791,76.226715 128.710114,77.612457 123.077377,77.364029 
	C113.925987,76.960411 104.770996,76.540245 95.614265,76.446411 
	C93.969467,76.429565 91.834984,77.549927 90.742126,78.837456 
	C87.083229,83.148140 83.627953,87.658432 80.423378,92.318306 
	C78.395081,95.267715 76.181870,96.872620 71.911842,95.394051 
	C74.823135,91.559258 78.113243,88.068108 80.430962,84.020187 
	C88.542557,69.853233 100.454567,62.033241 116.612808,59.247208 
	C127.089851,57.440739 126.920853,56.488514 133.259827,65.081398 
	C134.130951,66.262260 135.069275,67.393570 136.471848,69.178055 
	C137.763504,63.010048 140.751068,59.042564 147.100983,58.095356 
z"/>
<path fill="#2D4996" opacity="1.000000" stroke="none" 
	d="
M279.498627,110.774124 
	C280.478668,111.879265 281.458740,112.984406 282.841125,114.543259 
	C284.686432,112.875381 286.444702,111.286156 288.109528,109.781418 
	C279.104828,103.172791 280.578278,92.580734 275.901337,83.103218 
	C290.552155,86.375824 303.738281,89.321259 317.341919,92.359955 
	C316.739807,94.547874 316.154266,96.675652 315.315674,99.338196 
	C314.828094,100.472519 314.593506,101.072090 314.358948,101.671661 
	C315.124054,101.416351 315.889130,101.161041 316.654236,100.905716 
	C319.935059,96.106758 324.013855,96.126869 329.029480,98.199852 
	C334.075531,100.285408 339.427368,101.658211 344.695953,103.166100 
	C347.098267,103.853661 348.186310,104.933357 348.101837,107.638908 
	C347.895416,114.249519 348.034485,120.870926 348.034485,127.863937 
	C319.042877,123.828148 290.445312,119.847206 261.429993,115.384064 
	C261.026917,114.201660 261.041534,113.501450 261.493591,112.777817 
	C266.482269,113.272781 271.027924,113.856010 275.590179,114.244881 
	C276.338531,114.308662 277.159790,113.517174 278.007965,112.750336 
	C278.545258,111.844513 279.021942,111.309319 279.498627,110.774124 
M305.707794,117.542740 
	C308.292480,109.917900 310.877197,102.293060 313.553528,94.397858 
	C307.395538,93.147331 301.845398,92.020256 295.837708,90.800262 
	C296.780731,94.367386 297.244080,97.361916 298.375732,100.078011 
	C299.709747,103.279892 298.746582,105.317429 296.325653,107.411156 
	C293.491913,109.861908 290.941559,112.640335 287.655212,115.881241 
	C294.129852,116.641876 299.550018,117.278625 305.707794,117.542740 
M330.294098,112.923195 
	C329.467865,116.679314 331.549530,118.936485 334.768158,119.307594 
	C336.634430,119.522789 339.175873,118.204117 340.513367,116.748581 
	C341.125580,116.082306 340.066650,112.897263 338.888580,111.776047 
	C336.520294,109.522087 333.577545,109.155495 330.961182,111.847527 
	C330.847168,111.964867 330.769836,112.117889 330.294098,112.923195 
z"/>
<path fill="#2C4996" opacity="1.000000" stroke="none" 
	d="
M41.166031,167.017288 
	C41.166031,146.085373 41.166031,125.153465 41.166031,103.769424 
	C48.166176,105.355522 54.779800,106.854042 62.287266,108.555092 
	C55.645226,117.434151 49.259529,125.970535 42.593590,134.881546 
	C46.187103,135.751480 49.450432,136.221344 52.475849,137.336609 
	C60.165642,140.171280 61.534893,146.165634 55.803978,151.968079 
	C53.496098,154.304764 50.667885,156.127487 47.584789,158.574356 
	C50.211231,158.918625 52.530518,159.240723 54.854706,159.522324 
	C57.287651,159.817108 59.725307,160.072968 62.705452,160.406845 
	C59.107445,165.503113 55.582016,169.465973 48.882202,168.188263 
	C46.954258,167.820602 44.900513,168.112610 42.358444,167.818665 
	C41.650753,167.295425 41.435284,167.122803 41.166031,167.017288 
z"/>
<path fill="#2D4A97" opacity="1.000000" stroke="none" 
	d="
M97.368881,115.347519 
	C100.552223,111.071541 104.280663,109.812325 109.282646,110.760727 
	C113.820015,111.621033 118.533218,111.553963 122.462608,111.843681 
	C115.428810,119.661636 108.183113,127.715111 100.616150,136.125671 
	C103.209808,139.097061 106.321442,142.661865 110.282173,147.199417 
	C96.877083,144.893021 84.630051,142.785889 74.448074,141.034042 
	C81.542305,133.070984 89.327217,124.332657 97.368881,115.347519 
z"/>
<path fill="#355099" opacity="1.000000" stroke="none" 
	d="
M261.056152,112.801247 
	C261.041534,113.501450 261.026917,114.201660 261.017273,115.252167 
	C259.813324,114.794785 257.795746,114.197350 257.522522,113.146408 
	C255.185974,104.159065 253.072861,95.108963 251.167969,86.019989 
	C250.930130,84.885208 251.938614,82.833588 252.976440,82.198669 
	C257.914764,79.177498 263.062988,76.499466 268.136261,73.699432 
	C271.868256,76.704323 273.119354,79.978241 270.295380,84.037003 
	C265.934845,90.304161 266.862335,95.747482 272.288971,101.029625 
	C274.990845,103.659569 276.929169,107.073990 279.355774,110.453835 
	C279.021942,111.309319 278.545258,111.844513 277.711182,112.588478 
	C273.423950,107.648819 269.664185,102.357178 265.496216,97.409340 
	C263.242645,94.734070 263.048798,92.498558 264.562378,89.434822 
	C266.297058,85.923454 267.451843,82.125587 268.858551,78.452187 
	C268.390869,78.153755 267.923218,77.855316 267.455536,77.556885 
	C263.074615,80.087143 258.693665,82.617393 254.275940,85.168892 
	C254.600067,86.955284 254.777710,88.423325 255.139099,89.844658 
	C257.086273,97.503258 259.079102,105.150246 261.056152,112.801247 
z"/>
<path fill="#314D98" opacity="1.000000" stroke="none" 
	d="
M246.584732,74.017929 
	C233.839798,77.070198 224.875244,73.109482 217.114426,60.678825 
	C227.556259,62.748127 237.465347,64.112030 246.520721,68.701698 
	C248.916412,69.915932 250.220215,71.878082 246.584732,74.017929 
z"/>
<path fill="#314D98" opacity="1.000000" stroke="none" 
	d="
M260.572205,66.427780 
	C262.249939,67.727638 263.649872,68.801605 265.092316,69.908188 
	C261.731079,73.363335 256.142365,72.327827 250.105576,67.596947 
	C246.650452,64.889259 245.466232,61.836372 248.588623,57.625069 
	C252.610489,60.571896 256.452423,63.386890 260.572205,66.427780 
z"/>
<path fill="#2E4A97" opacity="1.000000" stroke="none" 
	d="
M41.131241,167.284454 
	C41.435284,167.122803 41.650753,167.295425 41.901398,167.725006 
	C41.692390,167.793762 41.394417,167.672684 41.131241,167.284454 
z"/>
<path fill="#F8F8FB" opacity="1.000000" stroke="none" 
	d="
M261.493591,112.777817 
	C259.079102,105.150246 257.086273,97.503258 255.139099,89.844658 
	C254.777710,88.423325 254.600067,86.955284 254.275940,85.168892 
	C258.693665,82.617393 263.074615,80.087143 267.455536,77.556885 
	C267.923218,77.855316 268.390869,78.153755 268.858551,78.452187 
	C267.451843,82.125587 266.297058,85.923454 264.562378,89.434822 
	C263.048798,92.498558 263.242645,94.734070 265.496216,97.409340 
	C269.664185,102.357178 273.423950,107.648819 277.650574,112.959106 
	C277.159790,113.517174 276.338531,114.308662 275.590179,114.244881 
	C271.027924,113.856010 266.482269,113.272781 261.493591,112.777817 
z"/>
<path fill="#F8F8FB" opacity="1.000000" stroke="none" 
	d="
M305.338989,117.729065 
	C299.550018,117.278625 294.129852,116.641876 287.655212,115.881241 
	C290.941559,112.640335 293.491913,109.861908 296.325653,107.411156 
	C298.746582,105.317429 299.709747,103.279892 298.375732,100.078011 
	C297.244080,97.361916 296.780731,94.367386 295.837708,90.800262 
	C301.845398,92.020256 307.395538,93.147331 313.553528,94.397858 
	C310.877197,102.293060 308.292480,109.917900 305.338989,117.729065 
z"/>
<path fill="#F3F3F8" opacity="1.000000" stroke="none" 
	d="
M330.484741,112.588745 
	C330.769836,112.117889 330.847168,111.964867 330.961182,111.847527 
	C333.577545,109.155495 336.520294,109.522087 338.888580,111.776047 
	C340.066650,112.897263 341.125580,116.082306 340.513367,116.748581 
	C339.175873,118.204117 336.634430,119.522789 334.768158,119.307594 
	C331.549530,118.936485 329.467865,116.679314 330.484741,112.588745 
z"/>
<path fill="#FDFDFE" opacity="1.000000" stroke="none" 
	d="
M316.421631,100.575790 
	C315.889130,101.161041 315.124054,101.416351 314.358948,101.671661 
	C314.593506,101.072090 314.828094,100.472519 315.365723,99.750717 
	C315.842194,99.834267 316.015594,100.040062 316.421631,100.575790 
z"/>
</svg>