<svg version="1.1" id="Layer_1" xmlns="http://www.w3.org/2000/svg" xmlns:xlink="http://www.w3.org/1999/xlink" x="0px" y="0px"
	 width="100%" viewBox="0 0 300 281" enable-background="new 0 0 300 281" xml:space="preserve">
<path fill="#FBFCFB" opacity="1.000000" stroke="none" 
	d="
M1.000000,98.000000 
	C1.000000,65.333344 1.000000,33.166695 1.000000,1.000030 
	C100.999947,1.000020 200.999893,1.000020 300.999878,1.000010 
	C300.999939,94.666573 300.999939,188.333145 300.999969,281.999817 
	C201.000137,281.999878 101.000275,281.999878 1.000204,281.999939 
	C1.000000,220.833328 1.000000,159.666672 1.000000,98.000000 
M61.005104,212.599243 
	C60.996429,213.010895 60.987755,213.422562 60.114086,213.945618 
	C57.856510,213.945618 55.598934,213.945618 52.416489,213.945618 
	C55.020977,218.852097 57.117172,223.104187 59.543159,227.158966 
	C60.152733,228.177811 61.811745,229.129715 63.002552,229.147079 
	C69.757446,229.245636 76.516617,229.051056 83.809982,229.307983 
	C84.962463,230.848877 86.114937,232.389786 86.290581,233.918701 
	C79.099869,233.918701 71.909149,233.918701 63.462574,233.918701 
	C67.668892,238.790604 70.915070,242.738724 74.403008,246.460281 
	C75.294777,247.411774 76.947418,248.121246 78.257446,248.132477 
	C86.224159,248.200912 94.192886,248.035400 102.796326,248.164444 
	C105.130829,249.714951 107.465340,251.265472 108.887306,252.818130 
	C100.013245,252.818130 91.139183,252.818130 81.489182,252.818130 
	C121.056953,290.705200 189.812042,286.444122 221.991058,252.884430 
	C202.194229,252.884430 182.751816,252.898651 163.309509,252.860794 
	C161.512543,252.857300 159.716248,252.522461 158.618225,252.063080 
	C161.306091,250.683197 163.993973,249.303299 167.655243,248.158661 
	C186.648224,248.176285 205.641296,248.222107 224.634003,248.158554 
	C226.173416,248.153412 228.209885,247.884201 229.160309,246.906494 
	C232.914810,243.044235 236.328323,238.850510 240.627075,233.907166 
	C222.812912,233.907166 206.369354,233.928162 189.925995,233.876678 
	C188.161057,233.871155 186.397430,233.443863 185.131393,232.743988 
	C186.651321,231.468094 188.171265,230.192215 190.338394,229.125443 
	C190.558594,229.078552 190.778778,229.031677 191.915634,229.198532 
	C207.889694,229.212708 223.863861,229.251938 239.837677,229.196671 
	C241.216156,229.191895 243.315674,229.008743 243.848099,228.147079 
	C246.560547,223.757385 248.867386,219.117081 251.678345,213.891205 
	C234.634674,213.891205 218.832977,213.891205 203.175781,213.272507 
	C204.435013,211.860779 205.694260,210.449036 207.632217,209.224014 
	C208.092819,209.168381 208.553421,209.112732 209.926300,209.284866 
	C223.944412,209.216736 237.962509,209.148621 252.724487,209.057861 
	C252.963486,208.645493 253.202469,208.233124 253.872604,207.290146 
	C255.077866,203.038757 256.283112,198.787384 257.638397,194.006836 
	C240.575684,194.006836 224.313202,194.006836 207.681931,193.396530 
	C206.495010,192.322113 205.308075,191.247681 204.121155,190.173264 
	C203.669937,191.409714 203.218719,192.646164 201.860657,193.939484 
	C177.753723,194.880905 153.649918,196.453629 129.538925,196.572784 
	C108.585266,196.676315 87.625504,195.077042 66.664078,194.357147 
	C60.133232,194.132843 53.588177,194.322220 46.719193,194.322220 
	C47.162262,196.272736 47.463425,197.724289 47.822990,199.161240 
	C50.332882,209.191559 50.336754,209.190598 60.455841,210.048492 
	C60.640789,210.692871 60.825741,211.337265 61.005104,212.599243 
M226.533234,91.800911 
	C226.447037,91.359177 226.360840,90.917450 225.909760,89.944771 
	C222.888229,87.334244 220.019669,84.513245 216.800873,82.174164 
	C213.764954,79.967987 210.433151,76.778351 207.104874,76.615921 
	C195.323349,76.040939 183.363281,75.527214 171.698013,76.908463 
	C146.641388,79.875313 121.695778,81.694283 96.614136,77.728706 
	C95.690407,77.582657 94.434258,77.467834 93.790581,77.949692 
	C88.686920,81.770348 83.694267,85.739296 78.667519,89.662697 
	C80.254936,90.696793 81.180466,90.760361 82.095016,90.687088 
	C92.678055,89.839195 103.245972,88.665459 113.845230,88.197571 
	C123.485458,87.772011 133.159943,88.037224 142.818069,88.129852 
	C150.464600,88.203186 158.239166,87.647186 165.729568,88.821053 
	C185.745041,91.957817 205.821884,92.231216 226.533234,91.800911 
M257.675201,189.162857 
	C257.859314,188.748962 258.043457,188.335068 258.624542,187.218018 
	C259.007263,183.303909 259.389954,179.389801 259.815765,175.034943 
	C257.621582,175.034943 255.985016,175.034943 254.348434,175.034943 
	C234.186005,175.034973 214.023544,175.013702 193.861221,175.062271 
	C191.378357,175.068253 188.869781,175.282822 186.418243,175.679504 
	C169.140335,178.475235 151.847443,180.483765 134.252258,179.939163 
	C112.310066,179.260010 90.294815,180.996948 68.465385,177.037369 
	C60.700409,175.628906 52.738647,175.305298 44.358204,174.433563 
	C44.589603,177.749069 44.729153,179.893738 44.890686,182.036728 
	C45.447624,189.425400 45.462467,189.695374 52.821922,189.370697 
	C67.456009,188.725067 82.083450,186.935257 96.699570,187.076202 
	C130.469925,187.401917 164.228546,188.797775 197.998550,189.364029 
	C217.643372,189.693420 237.301010,189.258316 257.675201,189.162857 
M60.416721,266.499207 
	C60.416721,263.386749 60.416721,260.274261 60.416721,256.658997 
	C48.859680,256.658997 37.792213,256.658997 26.671795,256.658997 
	C26.671795,179.573624 26.671795,103.012390 26.671795,26.449417 
	C109.919151,26.449417 192.834885,26.449417 275.755066,26.449417 
	C275.755066,103.308937 275.755066,179.874985 275.755066,256.923706 
	C264.392242,256.923706 253.328156,256.923706 242.372177,256.923706 
	C242.372177,264.806030 242.372177,272.200653 242.372177,279.557373 
	C261.305695,279.557373 279.892700,279.557373 298.618927,279.557373 
	C298.618927,187.367630 298.618927,95.462708 298.618927,3.352915 
	C200.296478,3.352915 102.226242,3.352915 3.976883,3.352915 
	C3.976883,95.517174 3.976883,187.434616 3.976883,279.597015 
	C22.776157,279.597015 41.352486,279.597015 60.416744,279.597015 
	C60.416744,275.412598 60.416744,271.453186 60.416721,266.499207 
M101.500008,160.100525 
	C82.748238,160.058807 63.914936,161.234909 45.094936,155.430588 
	C44.731842,160.873428 44.428337,165.423065 44.062073,170.913452 
	C52.027958,170.435608 59.293987,170.101715 66.542412,169.540466 
	C76.805641,168.745789 87.045845,167.187241 97.313744,167.014038 
	C120.297699,166.626328 143.292694,166.884216 166.283157,166.907333 
	C168.274414,166.909332 170.362366,166.770035 172.240784,167.290512 
	C183.781021,170.488113 195.546326,170.719223 207.404877,170.568954 
	C223.062546,170.370529 238.724640,170.520279 254.384827,170.520370 
	C256.131622,170.520386 257.878418,170.520355 260.076355,170.520355 
	C259.668762,164.946442 259.321869,160.202347 258.949860,155.115250 
	C246.498215,155.115250 234.526825,154.950882 222.562485,155.171051 
	C214.095200,155.326889 205.559830,155.433212 197.192688,156.573212 
	C182.666885,158.552322 168.225510,160.564697 153.476501,160.198471 
	C136.494003,159.776794 119.492989,160.100525 101.500008,160.100525 
M254.594727,135.560394 
	C240.476822,135.635162 226.202545,134.422607 212.280975,136.113663 
	C195.248520,138.182587 178.388229,140.645172 161.131882,140.322556 
	C136.143646,139.855392 111.137100,140.429962 86.144684,140.092056 
	C76.035622,139.955368 65.941017,138.611298 55.845055,137.755081 
	C53.723984,137.575211 51.625813,137.125290 48.977489,136.716507 
	C47.850151,141.391251 46.794971,145.766785 45.597137,150.733856 
	C47.854309,150.498322 49.139244,150.399963 50.413750,150.225449 
	C58.815186,149.074997 67.204071,147.001526 75.616104,146.905853 
	C109.440979,146.521164 143.272781,146.737854 177.102020,146.765732 
	C179.425949,146.767654 181.830261,146.709030 184.060196,147.246719 
	C197.122269,150.396240 210.360794,151.067123 223.734756,150.745056 
	C233.894287,150.500397 244.064499,150.710403 254.229828,150.678528 
	C255.467407,150.674652 256.704224,150.424606 258.556793,150.221024 
	C257.295105,145.272079 256.152771,140.791290 254.594727,135.560394 
M87.951447,100.936600 
	C83.560829,99.997147 79.193199,98.915367 74.766327,98.200394 
	C73.340744,97.970161 71.218872,98.188393 70.349190,99.096054 
	C67.631470,101.932457 65.359833,105.196266 62.461967,108.868958 
	C67.420334,108.476837 71.487770,107.884171 75.556404,107.875854 
	C111.351471,107.802742 147.146774,107.813766 182.941895,107.870216 
	C185.914749,107.874908 188.954620,108.087433 191.848038,108.725922 
	C208.704758,112.445656 225.745392,112.072914 244.209564,111.579369 
	C240.036423,106.250786 236.564575,101.720726 232.949387,97.308083 
	C232.419037,96.660744 231.203979,96.261467 230.311478,96.271271 
	C219.173096,96.393448 208.000610,96.134026 196.908646,96.949074 
	C186.988693,97.678009 177.179474,100.617371 167.283432,100.832191 
	C141.157028,101.399353 115.010017,101.016922 87.951447,100.936600 
M186.677063,126.918053 
	C208.425522,132.168243 230.516525,130.746399 253.411972,130.692749 
	C251.253937,126.038353 249.474014,121.978607 247.462799,118.036865 
	C247.029648,117.187950 245.761765,116.227409 244.878769,116.227783 
	C234.901260,116.231964 224.882980,115.895302 214.956558,116.677223 
	C202.228485,117.679848 189.597748,120.660286 176.883530,120.947266 
	C147.594803,121.608345 118.279625,121.314690 88.978050,121.068314 
	C79.203964,120.986130 69.441277,119.820221 59.665894,119.286766 
	C58.401157,119.217751 56.436615,119.576134 55.922768,120.421387 
	C54.246517,123.178749 53.091995,126.253281 51.788223,129.093689 
	C96.690048,124.513000 141.284241,127.746689 186.677063,126.918053 
M181.525772,71.885048 
	C187.316177,71.885048 193.106567,71.885048 198.896973,71.885048 
	C170.333023,57.396618 141.382416,58.150894 111.346260,67.890106 
	C134.977844,69.254517 157.758057,70.569778 181.525772,71.885048 
z"/>
<path fill="#020202" opacity="1.000000" stroke="none" 
	d="
M60.416733,266.996490 
	C60.416744,271.453186 60.416744,275.412598 60.416744,279.597015 
	C41.352486,279.597015 22.776157,279.597015 3.976883,279.597015 
	C3.976883,187.434616 3.976883,95.517174 3.976883,3.352915 
	C102.226242,3.352915 200.296478,3.352915 298.618927,3.352915 
	C298.618927,95.462708 298.618927,187.367630 298.618927,279.557373 
	C279.892700,279.557373 261.305695,279.557373 242.372177,279.557373 
	C242.372177,272.200653 242.372177,264.806030 242.372177,256.923706 
	C253.328156,256.923706 264.392242,256.923706 275.755066,256.923706 
	C275.755066,179.874985 275.755066,103.308937 275.755066,26.449417 
	C192.834885,26.449417 109.919151,26.449417 26.671795,26.449417 
	C26.671795,103.012390 26.671795,179.573624 26.671795,256.658997 
	C37.792213,256.658997 48.859680,256.658997 60.416721,256.658997 
	C60.416721,260.274261 60.416721,263.386749 60.416733,266.996490 
z"/>
<path fill="#37992A" opacity="1.000000" stroke="none" 
	d="
M157.919632,252.341492 
	C159.716248,252.522461 161.512543,252.857300 163.309509,252.860794 
	C182.751816,252.898651 202.194229,252.884430 221.991058,252.884430 
	C189.812042,286.444122 121.056953,290.705200 81.489182,252.818130 
	C91.139183,252.818130 100.013245,252.818130 109.723282,252.857422 
	C126.443321,261.009186 142.219650,259.931274 157.919632,252.341492 
z"/>
<path fill="#329725" opacity="1.000000" stroke="none" 
	d="
M102.000015,160.100525 
	C119.492989,160.100525 136.494003,159.776794 153.476501,160.198471 
	C168.225510,160.564697 182.666885,158.552322 197.192688,156.573212 
	C205.559830,155.433212 214.095200,155.326889 222.562485,155.171051 
	C234.526825,154.950882 246.498215,155.115250 258.949860,155.115250 
	C259.321869,160.202347 259.668762,164.946442 260.076355,170.520355 
	C257.878418,170.520355 256.131622,170.520386 254.384827,170.520370 
	C238.724640,170.520279 223.062546,170.370529 207.404877,170.568954 
	C195.546326,170.719223 183.781021,170.488113 172.240784,167.290512 
	C170.362366,166.770035 168.274414,166.909332 166.283157,166.907333 
	C143.292694,166.884216 120.297699,166.626328 97.313744,167.014038 
	C87.045845,167.187241 76.805641,168.745789 66.542412,169.540466 
	C59.293987,170.101715 52.027958,170.435608 44.062073,170.913452 
	C44.428337,165.423065 44.731842,160.873428 45.094936,155.430588 
	C63.914936,161.234909 82.748238,160.058807 102.000015,160.100525 
z"/>
<path fill="#399A2C" opacity="1.000000" stroke="none" 
	d="
M256.952881,189.167191 
	C237.301010,189.258316 217.643372,189.693420 197.998550,189.364029 
	C164.228546,188.797775 130.469925,187.401917 96.699570,187.076202 
	C82.083450,186.935257 67.456009,188.725067 52.821922,189.370697 
	C45.462467,189.695374 45.447624,189.425400 44.890686,182.036728 
	C44.729153,179.893738 44.589603,177.749069 44.358204,174.433563 
	C52.738647,175.305298 60.700409,175.628906 68.465385,177.037369 
	C90.294815,180.996948 112.310066,179.260010 134.252258,179.939163 
	C151.847443,180.483765 169.140335,178.475235 186.418243,175.679504 
	C188.869781,175.282822 191.378357,175.068253 193.861221,175.062271 
	C214.023544,175.013702 234.186005,175.034973 254.348434,175.034943 
	C255.985016,175.034943 257.621582,175.034943 259.815765,175.034943 
	C259.389954,179.389801 259.007263,183.303909 258.150024,187.706177 
	C257.434601,188.518616 257.193756,188.842896 256.952881,189.167191 
z"/>
<path fill="#389A2C" opacity="1.000000" stroke="none" 
	d="
M60.629852,209.391022 
	C50.336754,209.190598 50.332882,209.191559 47.822990,199.161240 
	C47.463425,197.724289 47.162262,196.272736 46.719193,194.322220 
	C53.588177,194.322220 60.133232,194.132843 66.664078,194.357147 
	C87.625504,195.077042 108.585266,196.676315 129.538925,196.572784 
	C153.649918,196.453629 177.753723,194.880905 202.518127,194.197891 
	C204.777283,196.744598 206.378952,199.032898 208.194183,201.626297 
	C205.567993,204.416794 202.972763,207.174362 200.015732,209.684204 
	C182.872589,209.337296 166.091324,209.223358 149.309906,209.142838 
	C130.414536,209.052170 111.519066,208.979904 92.623566,208.924484 
	C86.323380,208.906006 80.022972,208.964157 73.880386,208.664124 
	C74.931824,206.762192 76.148834,205.274063 76.624504,203.578018 
	C77.063454,202.012894 76.706978,200.224701 76.700851,198.534760 
	C75.350464,199.598724 73.384201,200.389206 72.767128,201.778809 
	C71.034462,205.680649 68.448074,207.813538 64.133362,208.028290 
	C62.945854,208.087402 61.796638,208.915680 60.629852,209.391022 
z"/>
<path fill="#409E33" opacity="1.000000" stroke="none" 
	d="
M254.802582,135.935455 
	C256.152771,140.791290 257.295105,145.272079 258.556793,150.221024 
	C256.704224,150.424606 255.467407,150.674652 254.229828,150.678528 
	C244.064499,150.710403 233.894287,150.500397 223.734756,150.745056 
	C210.360794,151.067123 197.122269,150.396240 184.060196,147.246719 
	C181.830261,146.709030 179.425949,146.767654 177.102020,146.765732 
	C143.272781,146.737854 109.440979,146.521164 75.616104,146.905853 
	C67.204071,147.001526 58.815186,149.074997 50.413750,150.225449 
	C49.139244,150.399963 47.854309,150.498322 45.597137,150.733856 
	C46.794971,145.766785 47.850151,141.391251 48.977489,136.716507 
	C51.625813,137.125290 53.723984,137.575211 55.845055,137.755081 
	C65.941017,138.611298 76.035622,139.955368 86.144684,140.092056 
	C111.137100,140.429962 136.143646,139.855392 161.131882,140.322556 
	C178.388229,140.645172 195.248520,138.182587 212.280975,136.113663 
	C226.202545,134.422607 240.476822,135.635162 254.802582,135.935455 
z"/>
<path fill="#030502" opacity="1.000000" stroke="none" 
	d="
M200.377563,209.931946 
	C202.972763,207.174362 205.567993,204.416794 208.194183,201.626297 
	C206.378952,199.032898 204.777283,196.744598 202.971558,194.169464 
	C203.218719,192.646164 203.669937,191.409714 204.121155,190.173264 
	C205.308075,191.247681 206.495010,192.322113 207.941193,194.046982 
	C210.286804,196.086166 212.228271,197.833618 214.504242,198.752884 
	C216.409164,199.522308 218.776871,199.076675 220.795944,199.663513 
	C221.733093,199.935898 222.328903,201.382721 223.079453,202.297119 
	C222.081863,202.891800 221.146667,203.718689 220.067215,204.008698 
	C219.182098,204.246506 218.036636,204.058060 217.159515,203.692047 
	C212.474289,201.736877 209.644882,203.691818 207.592285,208.047516 
	C207.130203,208.406815 206.987610,208.695236 206.953491,209.037308 
	C205.694260,210.449036 204.435013,211.860779 202.796524,213.731628 
	C198.627625,218.510284 194.837982,222.829819 190.793610,227.284668 
	C190.256332,227.918762 189.973770,228.417542 189.691193,228.916321 
	C188.171265,230.192215 186.651321,231.468094 184.602936,233.064301 
	C178.276947,238.230881 172.479385,243.077148 166.681839,247.923401 
	C163.993973,249.303299 161.306091,250.683197 158.268921,252.202286 
	C142.219650,259.931274 126.443321,261.009186 110.179550,252.856354 
	C107.465340,251.265472 105.130829,249.714951 102.298767,247.764221 
	C96.956604,242.886215 92.112015,238.408447 87.267418,233.930679 
	C86.114937,232.389786 84.962463,230.848877 83.431671,228.792572 
	C80.027161,223.534805 77.000946,218.792480 74.007645,213.733688 
	C74.054192,213.205566 74.067848,212.993896 74.380775,212.833511 
	C75.122299,213.289566 75.564552,213.694321 76.131203,214.403671 
	C81.282951,219.545639 86.310295,224.383026 91.492920,229.483398 
	C94.006508,231.226624 96.364830,232.706848 98.932251,234.470459 
	C121.936981,246.579666 144.627579,246.087357 167.562393,234.099503 
	C170.613739,232.408875 173.323502,230.792099 176.389160,229.150757 
	C183.141937,224.118561 189.538818,219.110947 196.240875,213.961624 
	C197.823227,212.523926 199.100403,211.227936 200.377563,209.931946 
z"/>
<path fill="#3C9C2F" opacity="1.000000" stroke="none" 
	d="
M88.411331,100.974564 
	C115.010017,101.016922 141.157028,101.399353 167.283432,100.832191 
	C177.179474,100.617371 186.988693,97.678009 196.908646,96.949074 
	C208.000610,96.134026 219.173096,96.393448 230.311478,96.271271 
	C231.203979,96.261467 232.419037,96.660744 232.949387,97.308083 
	C236.564575,101.720726 240.036423,106.250786 244.209564,111.579369 
	C225.745392,112.072914 208.704758,112.445656 191.848038,108.725922 
	C188.954620,108.087433 185.914749,107.874908 182.941895,107.870216 
	C147.146774,107.813766 111.351471,107.802742 75.556404,107.875854 
	C71.487770,107.884171 67.420334,108.476837 62.461967,108.868958 
	C65.359833,105.196266 67.631470,101.932457 70.349190,99.096054 
	C71.218872,98.188393 73.340744,97.970161 74.766327,98.200394 
	C79.193199,98.915367 83.560829,99.997147 88.411331,100.974564 
z"/>
<path fill="#389A2B" opacity="1.000000" stroke="none" 
	d="
M225.972427,91.697052 
	C205.821884,92.231216 185.745041,91.957817 165.729568,88.821053 
	C158.239166,87.647186 150.464600,88.203186 142.818069,88.129852 
	C133.159943,88.037224 123.485458,87.772011 113.845230,88.197571 
	C103.245972,88.665459 92.678055,89.839195 82.095016,90.687088 
	C81.180466,90.760361 80.254936,90.696793 78.667519,89.662697 
	C83.694267,85.739296 88.686920,81.770348 93.790581,77.949692 
	C94.434258,77.467834 95.690407,77.582657 96.614136,77.728706 
	C121.695778,81.694283 146.641388,79.875313 171.698013,76.908463 
	C183.363281,75.527214 195.323349,76.040939 207.104874,76.615921 
	C210.433151,76.778351 213.764954,79.967987 216.800873,82.174164 
	C220.019669,84.513245 222.888229,87.334244 225.990265,90.509430 
	C226.037994,91.281746 226.005219,91.489403 225.972427,91.697052 
z"/>
<path fill="#419F35" opacity="1.000000" stroke="none" 
	d="
M186.237518,126.876587 
	C141.284241,127.746689 96.690048,124.513000 51.788223,129.093689 
	C53.091995,126.253281 54.246517,123.178749 55.922768,120.421387 
	C56.436615,119.576134 58.401157,119.217751 59.665894,119.286766 
	C69.441277,119.820221 79.203964,120.986130 88.978050,121.068314 
	C118.279625,121.314690 147.594803,121.608345 176.883530,120.947266 
	C189.597748,120.660286 202.228485,117.679848 214.956558,116.677223 
	C224.882980,115.895302 234.901260,116.231964 244.878769,116.227783 
	C245.761765,116.227409 247.029648,117.187950 247.462799,118.036865 
	C249.474014,121.978607 251.253937,126.038353 253.411972,130.692749 
	C230.516525,130.746399 208.425522,132.168243 186.237518,126.876587 
z"/>
<path fill="#369929" opacity="1.000000" stroke="none" 
	d="
M167.168549,248.041031 
	C172.479385,243.077148 178.276947,238.230881 184.353851,233.298401 
	C186.397430,233.443863 188.161057,233.871155 189.925995,233.876678 
	C206.369354,233.928162 222.812912,233.907166 240.627075,233.907166 
	C236.328323,238.850510 232.914810,243.044235 229.160309,246.906494 
	C228.209885,247.884201 226.173416,248.153412 224.634003,248.158554 
	C205.641296,248.222107 186.648224,248.176285 167.168549,248.041031 
z"/>
<path fill="#36992A" opacity="1.000000" stroke="none" 
	d="
M191.048370,227.149353 
	C194.837982,222.829819 198.627625,218.510284 202.724274,214.040985 
	C218.832977,213.891205 234.634674,213.891205 251.678345,213.891205 
	C248.867386,219.117081 246.560547,223.757385 243.848099,228.147079 
	C243.315674,229.008743 241.216156,229.191895 239.837677,229.196671 
	C223.863861,229.251938 207.889694,229.212708 191.461365,228.785400 
	C191.020859,227.964615 191.034607,227.556992 191.048370,227.149353 
z"/>
<path fill="#37992A" opacity="1.000000" stroke="none" 
	d="
M207.803314,207.922989 
	C209.644882,203.691818 212.474289,201.736877 217.159515,203.692047 
	C218.036636,204.058060 219.182098,204.246506 220.067215,204.008698 
	C221.146667,203.718689 222.081863,202.891800 223.079453,202.297119 
	C222.328903,201.382721 221.733093,199.935898 220.795944,199.663513 
	C218.776871,199.076675 216.409164,199.522308 214.504242,198.752884 
	C212.228271,197.833618 210.286804,196.086166 208.125580,194.352142 
	C224.313202,194.006836 240.575684,194.006836 257.638397,194.006836 
	C256.283112,198.787384 255.077866,203.038757 253.354767,207.698746 
	C252.551498,208.431732 252.266052,208.756119 251.980621,209.080505 
	C237.962509,209.148621 223.944412,209.216736 209.334198,208.919769 
	C208.429153,208.344116 208.116241,208.133560 207.803314,207.922989 
z"/>
<path fill="#3B9C2E" opacity="1.000000" stroke="none" 
	d="
M181.032013,71.885040 
	C157.758057,70.569778 134.977844,69.254517 111.346260,67.890106 
	C141.382416,58.150894 170.333023,57.396618 198.896973,71.885048 
	C193.106567,71.885048 187.316177,71.885048 181.032013,71.885040 
z"/>
<path fill="#36992A" opacity="1.000000" stroke="none" 
	d="
M86.778999,233.924683 
	C92.112015,238.408447 96.956604,242.886215 101.981071,247.655975 
	C94.192886,248.035400 86.224159,248.200912 78.257446,248.132477 
	C76.947418,248.121246 75.294777,247.411774 74.403008,246.460281 
	C70.915070,242.738724 67.668892,238.790604 63.462574,233.918701 
	C71.909149,233.918701 79.099869,233.918701 86.778999,233.924683 
z"/>
<path fill="#37982A" opacity="1.000000" stroke="none" 
	d="
M73.974739,214.050140 
	C77.000946,218.792480 80.027161,223.534805 83.163849,228.616699 
	C76.516617,229.051056 69.757446,229.245636 63.002552,229.147079 
	C61.811745,229.129715 60.152733,228.177811 59.543159,227.158966 
	C57.117172,223.104187 55.020977,218.852097 52.416489,213.945618 
	C55.598934,213.945618 57.856510,213.945618 61.000805,213.986389 
	C65.625977,213.996704 69.364426,213.966263 73.324921,213.933304 
	C73.546959,213.930786 73.974739,214.050140 73.974739,214.050140 
z"/>
<path fill="#090E08" opacity="1.000000" stroke="none" 
	d="
M74.007645,213.733688 
	C73.974739,214.050140 73.546959,213.930786 73.307343,213.532516 
	C71.590042,212.475204 70.135071,211.336166 68.629555,211.264908 
	C66.106895,211.145508 63.552013,211.706802 61.010689,211.981644 
	C60.825741,211.337265 60.640789,210.692871 60.542847,209.719757 
	C61.796638,208.915680 62.945854,208.087402 64.133362,208.028290 
	C68.448074,207.813538 71.034462,205.680649 72.767128,201.778809 
	C73.384201,200.389206 75.350464,199.598724 76.700851,198.534760 
	C76.706978,200.224701 77.063454,202.012894 76.624504,203.578018 
	C76.148834,205.274063 74.931824,206.762192 73.606842,208.819992 
	C73.477547,210.460068 73.779526,211.621155 74.081497,212.782227 
	C74.067848,212.993896 74.054192,213.205566 74.007645,213.733688 
z"/>
<path fill="#E4E9E3" opacity="1.000000" stroke="none" 
	d="
M61.007896,212.290436 
	C63.552013,211.706802 66.106895,211.145508 68.629555,211.264908 
	C70.135071,211.336166 71.590042,212.475204 73.085304,213.535034 
	C69.364426,213.966263 65.625977,213.996704 61.433304,213.930679 
	C60.987755,213.422562 60.996429,213.010895 61.007896,212.290436 
z"/>
<path fill="#2B931D" opacity="1.000000" stroke="none" 
	d="
M207.592285,208.047516 
	C208.116241,208.133560 208.429153,208.344116 208.878052,208.805893 
	C208.553421,209.112732 208.092819,209.168381 207.292847,209.130661 
	C206.987610,208.695236 207.130203,208.406815 207.592285,208.047516 
z"/>
<path fill="#2C941E" opacity="1.000000" stroke="none" 
	d="
M190.793625,227.284668 
	C191.034607,227.556992 191.020859,227.964615 191.003052,228.678528 
	C190.778778,229.031677 190.558594,229.078552 190.014801,229.020889 
	C189.973770,228.417542 190.256332,227.918762 190.793625,227.284668 
z"/>
<path fill="#49A33D" opacity="1.000000" stroke="none" 
	d="
M226.252838,91.748978 
	C226.005219,91.489403 226.037994,91.281746 226.172714,90.774902 
	C226.360840,90.917450 226.447037,91.359177 226.252838,91.748978 
z"/>
<path fill="#2B931D" opacity="1.000000" stroke="none" 
	d="
M252.352554,209.069183 
	C252.266052,208.756119 252.551498,208.431732 253.139191,207.964050 
	C253.202469,208.233124 252.963486,208.645493 252.352554,209.069183 
z"/>
<path fill="#2A931C" opacity="1.000000" stroke="none" 
	d="
M257.314026,189.165024 
	C257.193756,188.842896 257.434601,188.518616 257.951538,188.057755 
	C258.043457,188.335068 257.859314,188.748962 257.314026,189.165024 
z"/>
<path fill="#F2F8F1" opacity="1.000000" stroke="none" 
	d="
M74.380775,212.833511 
	C73.779526,211.621155 73.477547,210.460068 73.449112,209.143127 
	C80.022972,208.964157 86.323380,208.906006 92.623566,208.924484 
	C111.519066,208.979904 130.414536,209.052170 149.309906,209.142838 
	C166.091324,209.223358 182.872589,209.337296 200.015747,209.684219 
	C199.100403,211.227936 197.823227,212.523926 195.782990,213.905792 
	C155.348877,214.027481 115.677841,214.063278 76.006798,214.099091 
	C75.564552,213.694321 75.122299,213.289566 74.380775,212.833511 
z"/>
<path fill="#36992A" opacity="1.000000" stroke="none" 
	d="
M76.131203,214.403671 
	C115.677841,214.063278 155.348877,214.027481 195.477814,214.047516 
	C189.538818,219.110947 183.141937,224.118561 175.915009,229.151337 
	C147.169159,229.191116 119.253403,229.205765 91.337639,229.220413 
	C86.310295,224.383026 81.282951,219.545639 76.131203,214.403671 
z"/>
<path fill="#359728" opacity="1.000000" stroke="none" 
	d="
M167.220795,234.173355 
	C144.627579,246.087357 121.936981,246.579666 99.419724,234.378021 
	C122.205666,234.059280 144.713226,234.116318 167.220795,234.173355 
z"/>
<path fill="#EAF4E8" opacity="1.000000" stroke="none" 
	d="
M167.562393,234.099503 
	C144.713226,234.116318 122.205666,234.059280 99.210617,234.094666 
	C96.364830,232.706848 94.006508,231.226624 91.492920,229.483398 
	C119.253403,229.205765 147.169159,229.191116 175.559082,229.175903 
	C173.323502,230.792099 170.613739,232.408875 167.562393,234.099503 
z"/>
</svg>