<svg version="1.1" id="Layer_1" xmlns="http://www.w3.org/2000/svg" xmlns:xlink="http://www.w3.org/1999/xlink" x="0px" y="0px"
	 width="100%" viewBox="0 0 300 288" enable-background="new 0 0 300 288" xml:space="preserve">
<path fill="#FDFCFC" opacity="1.000000" stroke="none" 
	d="
M301.000000,99.000000 
	C301.000000,162.666656 301.000000,225.833313 301.000000,289.000000 
	C201.000031,289.000000 101.000061,289.000000 1.000066,289.000000 
	C1.000044,193.000046 1.000044,97.000092 1.000022,1.000104 
	C100.999939,1.000070 200.999878,1.000070 300.999908,1.000035 
	C301.000000,33.500000 301.000000,66.000000 301.000000,99.000000 
M53.739567,217.758057 
	C54.744106,223.175278 57.855328,221.901642 61.071934,220.019104 
	C87.070839,204.803284 113.049103,189.552139 139.060593,174.357880 
	C143.977707,171.485641 146.428436,167.289886 146.441360,161.655579 
	C146.513550,130.158798 146.595978,98.661972 146.603409,67.165146 
	C146.604965,60.566288 144.265732,59.214386 138.711990,62.461906 
	C112.851044,77.583946 87.014511,92.747704 61.164719,107.888824 
	C55.750332,111.060226 53.060654,115.603142 53.748749,122.653564 
	C53.816143,123.106766 53.883537,123.559967 53.723431,124.925407 
	C53.799068,142.612488 53.874702,160.299561 53.739902,178.905838 
	C53.798790,191.612686 53.857674,204.319550 53.739567,217.758057 
M28.500109,3.237301 
	C20.361931,3.237301 12.223752,3.237301 3.774027,3.237301 
	C3.774027,95.626884 3.774027,187.694992 3.774027,279.746582 
	C26.515278,279.746582 49.069008,279.746582 71.469955,279.746582 
	C71.469955,271.983368 71.469955,264.587341 71.469955,256.923767 
	C56.301765,256.923767 41.511074,256.923767 26.470203,256.923767 
	C26.470203,180.067429 26.470203,103.494598 26.470203,26.666584 
	C109.752060,26.666584 192.803101,26.666584 276.075775,26.666584 
	C276.075775,103.492966 276.075775,180.065262 276.075775,257.139618 
	C260.982758,257.139618 246.086517,257.139618 231.240417,257.139618 
	C231.240417,265.054749 231.240417,272.464508 231.240417,279.860901 
	C253.954407,279.860901 276.372833,279.860901 298.767639,279.860901 
	C298.767639,187.579422 298.767639,95.544838 298.767639,3.237305 
	C208.771652,3.237305 119.135880,3.237305 28.500109,3.237301 
M81.710320,247.809357 
	C102.358330,259.953125 123.031479,272.054474 143.636337,284.271027 
	C148.669540,287.255219 153.602066,287.797058 158.707642,284.768280 
	C185.462540,268.896454 212.221817,253.031860 238.937088,237.093536 
	C243.634918,234.290833 243.606735,231.423874 238.860153,228.614853 
	C212.089157,212.771790 185.277374,196.997604 158.465881,181.223068 
	C153.931305,178.555145 149.237701,178.436508 144.706482,181.117157 
	C117.789009,197.041504 90.890938,212.998856 64.029175,229.016953 
	C59.531658,231.698883 59.519711,234.509811 63.922516,237.236435 
	C69.578262,240.738968 75.369919,244.022018 81.710320,247.809357 
M248.980576,138.500153 
	C248.971970,133.001526 248.831543,127.499138 248.988495,122.005249 
	C249.179947,115.303970 246.270737,110.725418 240.502518,107.378899 
	C215.170532,92.682098 189.933563,77.821533 164.655502,63.031700 
	C158.102585,59.197678 156.012848,60.341602 156.013443,67.808044 
	C156.015869,98.467125 156.146500,129.126709 155.993423,159.784912 
	C155.956863,167.108612 158.889481,171.907013 165.188354,175.540390 
	C190.268448,190.007294 215.196945,204.736954 240.184891,219.363647 
	C247.107910,223.416031 249.001434,222.378082 249.003082,214.481628 
	C249.008301,189.487778 248.989853,164.493912 248.980576,138.500153 
z"/>
<path fill="#040404" opacity="1.000000" stroke="none" 
	d="
M29.000107,3.237303 
	C119.135880,3.237305 208.771652,3.237305 298.767639,3.237305 
	C298.767639,95.544838 298.767639,187.579422 298.767639,279.860901 
	C276.372833,279.860901 253.954407,279.860901 231.240417,279.860901 
	C231.240417,272.464508 231.240417,265.054749 231.240417,257.139618 
	C246.086517,257.139618 260.982758,257.139618 276.075775,257.139618 
	C276.075775,180.065262 276.075775,103.492966 276.075775,26.666584 
	C192.803101,26.666584 109.752060,26.666584 26.470203,26.666584 
	C26.470203,103.494598 26.470203,180.067429 26.470203,256.923767 
	C41.511074,256.923767 56.301765,256.923767 71.469955,256.923767 
	C71.469955,264.587341 71.469955,271.983368 71.469955,279.746582 
	C49.069008,279.746582 26.515278,279.746582 3.774027,279.746582 
	C3.774027,187.694992 3.774027,95.626884 3.774027,3.237301 
	C12.223752,3.237301 20.361931,3.237301 29.000107,3.237303 
z"/>
<path fill="#E20226" opacity="1.000000" stroke="none" 
	d="
M53.951992,121.989082 
	C53.060654,115.603142 55.750332,111.060226 61.164719,107.888824 
	C87.014511,92.747704 112.851044,77.583946 138.711990,62.461906 
	C144.265732,59.214386 146.604965,60.566288 146.603409,67.165146 
	C146.595978,98.661972 146.513550,130.158798 146.441360,161.655579 
	C146.428436,167.289886 143.977707,171.485641 139.060593,174.357880 
	C113.049103,189.552139 87.070839,204.803284 61.071934,220.019104 
	C57.855328,221.901642 54.744106,223.175278 54.139496,217.106949 
	C54.670094,204.185699 54.813702,191.915619 54.889111,179.645142 
	C54.892494,179.094254 54.277370,178.539551 53.950336,177.986633 
	C53.874702,160.299561 53.799068,142.612488 54.070141,124.323456 
	C54.261898,123.144028 54.106945,122.566559 53.951992,121.989082 
M85.006004,123.491043 
	C82.474991,125.644852 79.905998,127.756302 77.432671,129.974442 
	C76.513947,130.798355 75.174911,131.843521 75.130615,132.836975 
	C74.899246,138.026169 75.022636,143.231201 75.022636,149.072784 
	C80.806976,145.742081 85.770889,142.883789 91.376373,139.656067 
	C91.376373,156.870010 91.376373,173.253998 91.376373,190.417480 
	C97.550072,186.794006 102.999420,183.354996 108.682800,180.360123 
	C111.585045,178.830765 112.578972,177.037766 112.563011,173.742599 
	C112.437950,147.921951 112.531609,122.100258 112.537605,96.278893 
	C112.537933,94.857124 112.358521,93.435310 112.217003,91.333778 
	C107.085487,94.348709 102.482063,96.940094 98.024857,99.762375 
	C97.069336,100.367416 96.266655,101.731979 96.033966,102.876816 
	C94.461014,110.615921 90.698746,117.159096 85.006004,123.491043 
z"/>
<path fill="#E20427" opacity="1.000000" stroke="none" 
	d="
M81.406677,247.604492 
	C75.369919,244.022018 69.578262,240.738968 63.922516,237.236435 
	C59.519711,234.509811 59.531658,231.698883 64.029175,229.016953 
	C90.890938,212.998856 117.789009,197.041504 144.706482,181.117157 
	C149.237701,178.436508 153.931305,178.555145 158.465881,181.223068 
	C185.277374,196.997604 212.089157,212.771790 238.860153,228.614853 
	C243.606735,231.423874 243.634918,234.290833 238.937088,237.093536 
	C212.221817,253.031860 185.462540,268.896454 158.707642,284.768280 
	C153.602066,287.797058 148.669540,287.255219 143.636337,284.271027 
	C123.031479,272.054474 102.358330,259.953125 81.406677,247.604492 
M108.261299,215.766708 
	C101.520645,223.011765 99.878525,227.812424 103.892288,233.340729 
	C106.932137,237.527557 111.415581,240.691544 115.411453,244.130814 
	C115.987991,244.627045 117.636414,244.471146 118.443535,244.011185 
	C124.209923,240.725082 129.886780,237.281860 135.632553,233.864532 
	C133.538300,232.006302 131.536514,230.521637 129.899979,228.707504 
	C127.628502,226.189499 127.989441,223.566925 130.304611,221.162399 
	C134.465179,216.841187 143.236099,215.562912 148.445709,218.525635 
	C153.542908,221.424454 155.110367,225.607819 153.080841,231.158875 
	C151.938324,234.283844 150.572510,237.328308 149.465408,240.464844 
	C144.398544,254.819763 147.777115,265.039856 159.961899,271.783447 
	C180.021454,259.866730 200.207962,247.874588 220.941803,235.557297 
	C217.998642,233.804474 215.601730,232.825333 213.769653,231.206802 
	C206.542862,224.822388 199.921219,225.467361 192.385406,231.239609 
	C186.046097,236.095322 178.673447,239.601990 171.758255,243.705887 
	C171.281631,243.353668 170.805008,243.001450 170.328384,242.649231 
	C172.459991,237.702240 174.520920,232.723328 176.738647,227.815247 
	C180.720749,219.002472 178.917847,211.965240 170.776642,206.667770 
	C167.750092,204.698410 164.366318,202.956589 160.899811,202.037918 
	C141.143463,196.802231 124.273918,203.440872 108.261299,215.766708 
z"/>
<path fill="#E20428" opacity="1.000000" stroke="none" 
	d="
M248.980560,139.000107 
	C248.989853,164.493912 249.008301,189.487778 249.003082,214.481628 
	C249.001434,222.378082 247.107910,223.416031 240.184891,219.363647 
	C215.196945,204.736954 190.268448,190.007294 165.188354,175.540390 
	C158.889481,171.907013 155.956863,167.108612 155.993423,159.784912 
	C156.146500,129.126709 156.015869,98.467125 156.013443,67.808044 
	C156.012848,60.341602 158.102585,59.197678 164.655502,63.031700 
	C189.933563,77.821533 215.170532,92.682098 240.502518,107.378899 
	C246.270737,110.725418 249.179947,115.303970 248.988495,122.005249 
	C248.831543,127.499138 248.971970,133.001526 248.980560,139.000107 
M165.860687,75.681992 
	C165.790680,75.796837 165.720673,75.911690 165.650665,76.026535 
	C165.789978,75.988541 165.929306,75.950546 165.745819,76.636345 
	C173.317856,94.927406 180.822495,113.246964 188.533005,131.479462 
	C189.719208,134.284378 189.577255,136.164124 187.649719,138.585449 
	C180.832703,147.148788 174.283020,155.924927 167.330185,165.014969 
	C176.274994,170.259171 184.807068,175.261398 193.492081,180.353287 
	C196.960129,174.975967 200.209015,169.938461 203.967361,164.111023 
	C206.845871,172.021988 209.687225,178.769455 211.712860,185.753540 
	C213.176498,190.799881 215.974396,193.944382 220.550705,196.317535 
	C227.036224,199.680756 233.219833,203.626205 239.532471,207.322830 
	C233.025040,189.514267 225.947250,172.493103 218.589050,155.594040 
	C217.267014,152.557846 217.512817,150.624954 219.569672,148.083527 
	C226.982147,138.924698 234.126587,129.548950 241.681458,119.858589 
	C232.418579,114.424400 223.570267,109.233429 214.434586,103.873863 
	C210.810394,109.500450 207.272659,114.992805 203.299591,121.161034 
	C199.672424,111.579193 196.414413,102.870232 193.056534,94.199966 
	C192.478027,92.706207 191.825027,90.789444 190.611588,90.066483 
	C182.496948,85.231789 174.221069,80.667725 165.860687,75.681992 
z"/>
<path fill="#E10019" opacity="1.000000" stroke="none" 
	d="
M53.845119,178.446228 
	C54.277370,178.539551 54.892494,179.094254 54.889111,179.645142 
	C54.813702,191.915619 54.670094,204.185699 54.227989,216.741119 
	C53.857674,204.319550 53.798790,191.612686 53.845119,178.446228 
z"/>
<path fill="#E10019" opacity="1.000000" stroke="none" 
	d="
M53.850372,122.321320 
	C54.106945,122.566559 54.261898,123.144028 54.183891,123.867340 
	C53.883537,123.559967 53.816143,123.106766 53.850372,122.321320 
z"/>
<path fill="#FEF9FA" opacity="1.000000" stroke="none" 
	d="
M85.250122,123.229630 
	C90.698746,117.159096 94.461014,110.615921 96.033966,102.876816 
	C96.266655,101.731979 97.069336,100.367416 98.024857,99.762375 
	C102.482063,96.940094 107.085487,94.348709 112.217003,91.333778 
	C112.358521,93.435310 112.537933,94.857124 112.537605,96.278893 
	C112.531609,122.100258 112.437950,147.921951 112.563011,173.742599 
	C112.578972,177.037766 111.585045,178.830765 108.682800,180.360123 
	C102.999420,183.354996 97.550072,186.794006 91.376373,190.417480 
	C91.376373,173.253998 91.376373,156.870010 91.376373,139.656067 
	C85.770889,142.883789 80.806976,145.742081 75.022636,149.072784 
	C75.022636,143.231201 74.899246,138.026169 75.130615,132.836975 
	C75.174911,131.843521 76.513947,130.798355 77.432671,129.974442 
	C79.905998,127.756302 82.474991,125.644852 85.250122,123.229630 
z"/>
<path fill="#FFFBFC" opacity="1.000000" stroke="none" 
	d="
M108.519730,215.515900 
	C124.273918,203.440872 141.143463,196.802231 160.899811,202.037918 
	C164.366318,202.956589 167.750092,204.698410 170.776642,206.667770 
	C178.917847,211.965240 180.720749,219.002472 176.738647,227.815247 
	C174.520920,232.723328 172.459991,237.702240 170.328384,242.649231 
	C170.805008,243.001450 171.281631,243.353668 171.758255,243.705887 
	C178.673447,239.601990 186.046097,236.095322 192.385406,231.239609 
	C199.921219,225.467361 206.542862,224.822388 213.769653,231.206802 
	C215.601730,232.825333 217.998642,233.804474 220.941803,235.557297 
	C200.207962,247.874588 180.021454,259.866730 159.961899,271.783447 
	C147.777115,265.039856 144.398544,254.819763 149.465408,240.464844 
	C150.572510,237.328308 151.938324,234.283844 153.080841,231.158875 
	C155.110367,225.607819 153.542908,221.424454 148.445709,218.525635 
	C143.236099,215.562912 134.465179,216.841187 130.304611,221.162399 
	C127.989441,223.566925 127.628502,226.189499 129.899979,228.707504 
	C131.536514,230.521637 133.538300,232.006302 135.632553,233.864532 
	C129.886780,237.281860 124.209923,240.725082 118.443535,244.011185 
	C117.636414,244.471146 115.987991,244.627045 115.411453,244.130814 
	C111.415581,240.691544 106.932137,237.527557 103.892288,233.340729 
	C99.878525,227.812424 101.520645,223.011765 108.519730,215.515900 
z"/>
<path fill="#FFFBFC" opacity="1.000000" stroke="none" 
	d="
M165.997513,76.015823 
	C174.221069,80.667725 182.496948,85.231789 190.611588,90.066483 
	C191.825027,90.789444 192.478027,92.706207 193.056534,94.199966 
	C196.414413,102.870232 199.672424,111.579193 203.299591,121.161034 
	C207.272659,114.992805 210.810394,109.500450 214.434586,103.873863 
	C223.570267,109.233429 232.418579,114.424400 241.681458,119.858589 
	C234.126587,129.548950 226.982147,138.924698 219.569672,148.083527 
	C217.512817,150.624954 217.267014,152.557846 218.589050,155.594040 
	C225.947250,172.493103 233.025040,189.514267 239.532471,207.322830 
	C233.219833,203.626205 227.036224,199.680756 220.550705,196.317535 
	C215.974396,193.944382 213.176498,190.799881 211.712860,185.753540 
	C209.687225,178.769455 206.845871,172.021988 203.967361,164.111023 
	C200.209015,169.938461 196.960129,174.975967 193.492081,180.353287 
	C184.807068,175.261398 176.274994,170.259171 167.330185,165.014969 
	C174.283020,155.924927 180.832703,147.148788 187.649719,138.585449 
	C189.577255,136.164124 189.719208,134.284378 188.533005,131.479462 
	C180.822495,113.246964 173.317856,94.927406 165.889313,76.300186 
	C166.032822,75.964020 165.997513,76.015823 165.997513,76.015823 
z"/>
<path fill="#FFFBFC" opacity="1.000000" stroke="none" 
	d="
M166.050720,75.938286 
	C165.929306,75.950546 165.789978,75.988541 165.650665,76.026535 
	C165.720673,75.911690 165.790680,75.796837 165.929108,75.848907 
	C165.997513,76.015823 166.032822,75.964020 166.050720,75.938286 
z"/>
</svg>